<?xml version="1.0" encoding="utf-8"?>
<!-- Generator: Adobe Illustrator 16.0.0, SVG Export Plug-In . SVG Version: 6.00 Build 0)  -->
<!DOCTYPE svg PUBLIC "-//W3C//DTD SVG 1.1//EN" "http://www.w3.org/Graphics/SVG/1.1/DTD/svg11.dtd">
<svg version="1.1" id="Layer_1" xmlns="http://www.w3.org/2000/svg" xmlns:xlink="http://www.w3.org/1999/xlink" x="0px" y="0px"
	 width="595.28px" height="595.28px" viewBox="0 0 595.28 595.28" enable-background="new 0 0 595.28 595.28" xml:space="preserve">
<symbol  id="Deleted_Symbol" viewBox="-7.167 -7.166 14.334 14.333">
	<polygon fill="#FFFFFF" points="7.167,-7.167 -7.167,-7.167 -7.167,7.167 7.167,7.167 	"/>
</symbol>
<linearGradient id="SVGID_1_" gradientUnits="userSpaceOnUse" x1="-2.6885" y1="592.543" x2="606.3112" y2="-5.4557">
	<stop  offset="0" style="stop-color:#BABABA"/>
	<stop  offset="0.1617" style="stop-color:#C7C7C7"/>
	<stop  offset="0.7141" style="stop-color:#EFEFEF"/>
	<stop  offset="1" style="stop-color:#FFFFFF"/>
</linearGradient>
<rect y="-0.001" fill="url(#SVGID_1_)" width="595.28" height="595.282"/>
<path opacity="0.3" fill="#662D91" d="M368.47,135.312c-1.031-0.598-2.072-1.174-3.125-1.737c1.049,0.561,2.09,1.142,3.121,1.74
	L368.47,135.312z"/>
<path opacity="0.3" fill="#662D91" d="M327.656,477.297c-1.03-0.595-2.071-1.172-3.123-1.737c1.047,0.561,2.087,1.145,3.12,1.74
	L327.656,477.297z"/>
<g>
	<g>
		<rect x="59.212" y="546.774" fill="#231F20" width="27.375" height="1"/>
	</g>
	<g>
		<rect x="63.323" y="549.296" fill="#231F20" width="19.152" height="1"/>
	</g>
	<g>
		<rect x="67.448" y="551.815" fill="#231F20" width="10.902" height="1"/>
	</g>
	<g>
		<rect x="61.698" y="554.337" fill="#231F20" width="22.402" height="1"/>
	</g>
	<g>
		<rect x="66.056" y="556.856" fill="#231F20" width="13.688" height="1"/>
	</g>
</g>
<g>
	<g>
		<rect x="198.344" y="546.774" fill="#231F20" width="27.375" height="1"/>
	</g>
	<g>
		<rect x="202.455" y="549.296" fill="#231F20" width="19.152" height="1"/>
	</g>
	<g>
		<rect x="206.58" y="551.815" fill="#231F20" width="10.902" height="1"/>
	</g>
	<g>
		<rect x="200.83" y="554.337" fill="#231F20" width="22.402" height="1"/>
	</g>
	<g>
		<rect x="205.188" y="556.856" fill="#231F20" width="13.688" height="1"/>
	</g>
</g>
<g>
	<g>
		<rect x="336.398" y="546.774" fill="#231F20" width="27.375" height="1"/>
	</g>
	<g>
		<rect x="340.51" y="549.296" fill="#231F20" width="19.152" height="1"/>
	</g>
	<g>
		<rect x="344.635" y="551.815" fill="#231F20" width="10.902" height="1"/>
	</g>
	<g>
		<rect x="338.885" y="554.337" fill="#231F20" width="22.402" height="1"/>
	</g>
	<g>
		<rect x="343.242" y="556.856" fill="#231F20" width="13.688" height="1"/>
	</g>
</g>
<g>
	<g>
		<rect x="474.53" y="546.774" fill="#231F20" width="27.375" height="1"/>
	</g>
	<g>
		<rect x="478.642" y="549.296" fill="#231F20" width="19.152" height="1"/>
	</g>
	<g>
		<rect x="482.767" y="551.815" fill="#231F20" width="10.902" height="1"/>
	</g>
	<g>
		<rect x="477.017" y="554.337" fill="#231F20" width="22.402" height="1"/>
	</g>
	<g>
		<rect x="481.374" y="556.856" fill="#231F20" width="13.688" height="1"/>
	</g>
</g>
<g>
	<g>
		<rect x="105.836" y="282.125" fill="#29ABE2" width="36.006" height="1.025"/>
	</g>
	<g>
		<rect x="116.652" y="284.711" fill="#29ABE2" width="25.189" height="1.025"/>
	</g>
	<g>
		<rect x="127.503" y="287.299" fill="#29ABE2" width="14.339" height="1.025"/>
	</g>
	<g>
		<rect x="112.377" y="289.887" fill="#29ABE2" width="29.465" height="1.025"/>
	</g>
	<g>
		<rect x="123.84" y="292.471" fill="#29ABE2" width="18.002" height="1.027"/>
	</g>
</g>
<g>
	<g>
		
			<linearGradient id="SVGID_2_" gradientUnits="userSpaceOnUse" x1="820.4141" y1="602.6162" x2="847.0918" y2="602.6162" gradientTransform="matrix(-1 0 0 -1 967.918 653.5234)">
			<stop  offset="0.1452" style="stop-color:#F15A24"/>
			<stop  offset="1" style="stop-color:#F18C68"/>
		</linearGradient>
		<rect x="120.826" y="50.395" fill="url(#SVGID_2_)" width="26.679" height="1.025"/>
	</g>
	<g>
		
			<linearGradient id="SVGID_3_" gradientUnits="userSpaceOnUse" x1="820.4141" y1="600.0303" x2="839.0781" y2="600.0303" gradientTransform="matrix(-1 0 0 -1 967.918 653.5234)">
			<stop  offset="0.1452" style="stop-color:#F15A24"/>
			<stop  offset="1" style="stop-color:#F18C68"/>
		</linearGradient>
		<rect x="128.839" y="52.98" fill="url(#SVGID_3_)" width="18.665" height="1.025"/>
	</g>
	<g>
		
			<linearGradient id="SVGID_4_" gradientUnits="userSpaceOnUse" x1="820.4141" y1="597.4434" x2="831.0391" y2="597.4434" gradientTransform="matrix(-1 0 0 -1 967.918 653.5234)">
			<stop  offset="0.1452" style="stop-color:#F15A24"/>
			<stop  offset="1" style="stop-color:#F18C68"/>
		</linearGradient>
		<rect x="136.879" y="55.567" fill="url(#SVGID_4_)" width="10.625" height="1.026"/>
	</g>
	<g>
		
			<linearGradient id="SVGID_5_" gradientUnits="userSpaceOnUse" x1="820.4141" y1="594.8555" x2="842.2461" y2="594.8555" gradientTransform="matrix(-1 0 0 -1 967.918 653.5234)">
			<stop  offset="0.1452" style="stop-color:#F15A24"/>
			<stop  offset="1" style="stop-color:#F18C68"/>
		</linearGradient>
		<rect x="125.671" y="58.155" fill="url(#SVGID_5_)" width="21.833" height="1.026"/>
	</g>
	<g>
		
			<linearGradient id="SVGID_6_" gradientUnits="userSpaceOnUse" x1="820.4141" y1="592.2695" x2="833.7539" y2="592.2695" gradientTransform="matrix(-1 0 0 -1 967.918 653.5234)">
			<stop  offset="0.1452" style="stop-color:#F15A24"/>
			<stop  offset="1" style="stop-color:#F18C68"/>
		</linearGradient>
		<rect x="134.165" y="60.74" fill="url(#SVGID_6_)" width="13.34" height="1.027"/>
	</g>
</g>
<g>
	<g>
		
			<linearGradient id="SVGID_7_" gradientUnits="userSpaceOnUse" x1="-10.2813" y1="83.106" x2="16.0293" y2="83.106" gradientTransform="matrix(-1.0403 0 0 1 401.8145 4.882813e-004)">
			<stop  offset="0.1452" style="stop-color:#8CC63F"/>
			<stop  offset="1" style="stop-color:#A3E349"/>
		</linearGradient>
		<rect x="385.139" y="82.594" fill="url(#SVGID_7_)" width="27.371" height="1.025"/>
	</g>
	<g>
		
			<linearGradient id="SVGID_8_" gradientUnits="userSpaceOnUse" x1="-10.2813" y1="80.52" x2="8.126" y2="80.52" gradientTransform="matrix(-1.0403 0 0 1 401.8145 4.882813e-004)">
			<stop  offset="0.1452" style="stop-color:#8CC63F"/>
			<stop  offset="1" style="stop-color:#A3E349"/>
		</linearGradient>
		<rect x="393.36" y="80.008" fill="url(#SVGID_8_)" width="19.149" height="1.025"/>
	</g>
	<g>
		
			<linearGradient id="SVGID_9_" gradientUnits="userSpaceOnUse" x1="-10.2813" y1="77.9321" x2="0.1968" y2="77.9321" gradientTransform="matrix(-1.0403 0 0 1 401.8145 4.882813e-004)">
			<stop  offset="0.1452" style="stop-color:#8CC63F"/>
			<stop  offset="1" style="stop-color:#A3E349"/>
		</linearGradient>
		<rect x="401.609" y="77.42" fill="url(#SVGID_9_)" width="10.9" height="1.025"/>
	</g>
	<g>
		
			<linearGradient id="SVGID_10_" gradientUnits="userSpaceOnUse" x1="-10.2813" y1="75.3442" x2="11.2495" y2="75.3442" gradientTransform="matrix(-1.0403 0 0 1 401.8145 4.882813e-004)">
			<stop  offset="0.1452" style="stop-color:#8CC63F"/>
			<stop  offset="1" style="stop-color:#A3E349"/>
		</linearGradient>
		<rect x="390.111" y="74.832" fill="url(#SVGID_10_)" width="22.398" height="1.025"/>
	</g>
	<g>
		
			<linearGradient id="SVGID_11_" gradientUnits="userSpaceOnUse" x1="-10.2813" y1="72.7593" x2="2.874" y2="72.7593" gradientTransform="matrix(-1.0403 0 0 1 401.8145 4.882813e-004)">
			<stop  offset="0.1452" style="stop-color:#8CC63F"/>
			<stop  offset="1" style="stop-color:#A3E349"/>
		</linearGradient>
		<rect x="398.824" y="72.246" fill="url(#SVGID_11_)" width="13.686" height="1.027"/>
	</g>
</g>
<g>
	<g>
		
			<linearGradient id="SVGID_12_" gradientUnits="userSpaceOnUse" x1="171.3193" y1="190.7607" x2="198.6968" y2="190.7607" gradientTransform="matrix(-1.0403 0 0 -1.0001 401.8145 605.0171)">
			<stop  offset="0.0806" style="stop-color:#662D91"/>
			<stop  offset="1" style="stop-color:#7F43AD"/>
		</linearGradient>
		<rect x="195.11" y="413.726" fill="url(#SVGID_12_)" width="28.48" height="1.025"/>
	</g>
	<g>
		
			<linearGradient id="SVGID_13_" gradientUnits="userSpaceOnUse" x1="171.3193" y1="188.1748" x2="190.4731" y2="188.1748" gradientTransform="matrix(-1.0403 0 0 -1.0001 401.8145 605.0171)">
			<stop  offset="0.0806" style="stop-color:#662D91"/>
			<stop  offset="1" style="stop-color:#7F43AD"/>
		</linearGradient>
		<rect x="203.665" y="416.312" fill="url(#SVGID_13_)" width="19.926" height="1.025"/>
	</g>
	<g>
		
			<linearGradient id="SVGID_14_" gradientUnits="userSpaceOnUse" x1="171.3193" y1="185.5869" x2="182.2236" y2="185.5869" gradientTransform="matrix(-1.0403 0 0 -1.0001 401.8145 605.0171)">
			<stop  offset="0.0806" style="stop-color:#662D91"/>
			<stop  offset="1" style="stop-color:#7F43AD"/>
		</linearGradient>
		<rect x="212.247" y="418.899" fill="url(#SVGID_14_)" width="11.344" height="1.025"/>
	</g>
	<g>
		
			<linearGradient id="SVGID_15_" gradientUnits="userSpaceOnUse" x1="171.3193" y1="183" x2="193.7231" y2="183" gradientTransform="matrix(-1.0403 0 0 -1.0001 401.8145 605.0171)">
			<stop  offset="0.0806" style="stop-color:#662D91"/>
			<stop  offset="1" style="stop-color:#7F43AD"/>
		</linearGradient>
		<rect x="200.284" y="421.487" fill="url(#SVGID_15_)" width="23.307" height="1.025"/>
	</g>
	<g>
		
			<linearGradient id="SVGID_16_" gradientUnits="userSpaceOnUse" x1="171.3193" y1="180.415" x2="185.0078" y2="180.415" gradientTransform="matrix(-1.0403 0 0 -1.0001 401.8145 605.0171)">
			<stop  offset="0.0806" style="stop-color:#662D91"/>
			<stop  offset="1" style="stop-color:#7F43AD"/>
		</linearGradient>
		<rect x="209.35" y="424.071" fill="url(#SVGID_16_)" width="14.24" height="1.027"/>
	</g>
</g>
<g>
	<g>
		<path opacity="0.3" fill="#662D91" d="M216.106,407.494c-0.005,0.15-0.012,0.296-0.012,0.447c0,0.164,0.01,0.324,0.013,0.486
			c0.001-0.211-0.003-0.42-0.003-0.628C216.104,407.698,216.106,407.596,216.106,407.494z"/>
		<path opacity="0.3" fill="#662D91" d="M216.114,407.255c-0.001,0.079-0.003,0.16-0.007,0.239c0,0.102-0.002,0.204-0.002,0.306
			c0,0.208,0.004,0.417,0.003,0.628c0.001,0.053,0.004,0.106,0.004,0.162C216.108,408.143,216.11,407.7,216.114,407.255z"/>
		<path opacity="0.3" fill="#662D91" d="M216.114,407.255c-0.001,0.079-0.003,0.16-0.007,0.239c0,0.102-0.002,0.204-0.002,0.306
			c0,0.208,0.004,0.417,0.003,0.628c0.001,0.053,0.004,0.106,0.004,0.162C216.108,408.143,216.11,407.7,216.114,407.255z"/>
	</g>
	
		<radialGradient id="SVGID_17_" cx="1243.1914" cy="1330.1152" r="128.8696" fx="1141.1" fy="1330.1165" gradientTransform="matrix(-0.4046 0.393 -0.2116 -0.2179 1049.8062 252.3041)" gradientUnits="userSpaceOnUse">
		<stop  offset="0" style="stop-color:#A6A8AB"/>
		<stop  offset="0.1546" style="stop-color:#C0C1C3"/>
		<stop  offset="0.3638" style="stop-color:#DBDCDD"/>
		<stop  offset="0.5748" style="stop-color:#EFEFF0"/>
		<stop  offset="0.7864" style="stop-color:#FBFBFB"/>
		<stop  offset="1" style="stop-color:#FFFFFF"/>
	</radialGradient>
	<path fill="url(#SVGID_17_)" d="M213.222,501.68c-15.064-15.521-3.933-50.757,24.861-78.716
		c28.799-27.968,64.351-38.063,79.412-22.554c15.069,15.509,3.932,50.754-24.86,78.718
		C263.84,507.094,228.285,517.189,213.222,501.68z"/>
	
		<radialGradient id="SVGID_18_" cx="1253.3242" cy="1505.0215" r="128.8716" fx="1151.2312" fy="1505.0227" gradientTransform="matrix(-0.4046 0.393 -0.2116 -0.2179 1049.8062 252.3041)" gradientUnits="userSpaceOnUse">
		<stop  offset="0" style="stop-color:#A6A8AB"/>
		<stop  offset="0.1546" style="stop-color:#C0C1C3"/>
		<stop  offset="0.3638" style="stop-color:#DBDCDD"/>
		<stop  offset="0.5748" style="stop-color:#EFEFF0"/>
		<stop  offset="0.7864" style="stop-color:#FBFBFB"/>
		<stop  offset="1" style="stop-color:#FFFFFF"/>
	</radialGradient>
	<path fill="url(#SVGID_18_)" d="M172.111,467.552c-15.06-15.512-3.935-50.759,24.86-78.716
		c28.803-27.973,64.352-38.063,79.417-22.555c15.065,15.513,3.929,50.755-24.862,78.716
		C222.733,472.959,187.174,483.052,172.111,467.552z"/>
	
		<radialGradient id="SVGID_19_" cx="1287.5254" cy="1410.0742" r="128.8721" fx="1185.432" fy="1410.0754" gradientTransform="matrix(-0.4046 0.393 -0.2116 -0.2179 1049.8062 252.3041)" gradientUnits="userSpaceOnUse">
		<stop  offset="0" style="stop-color:#A6A8AB"/>
		<stop  offset="0.1546" style="stop-color:#C0C1C3"/>
		<stop  offset="0.3638" style="stop-color:#DBDCDD"/>
		<stop  offset="0.5748" style="stop-color:#EFEFF0"/>
		<stop  offset="0.7864" style="stop-color:#FBFBFB"/>
		<stop  offset="1" style="stop-color:#FFFFFF"/>
	</radialGradient>
	<path fill="url(#SVGID_19_)" d="M178.362,501.68c-15.063-15.517-3.934-50.757,24.863-78.716
		c28.798-27.973,64.347-38.063,79.413-22.554c15.066,15.512,3.927,50.754-24.861,78.718
		C228.985,507.091,193.426,517.189,178.362,501.68z"/>
	
		<radialGradient id="SVGID_20_" cx="1233.5557" cy="1330.375" r="128.8735" fx="1131.4612" fy="1330.3762" gradientTransform="matrix(-0.4046 0.393 -0.2116 -0.2179 1049.8062 252.3041)" gradientUnits="userSpaceOnUse">
		<stop  offset="0" style="stop-color:#A6A8AB"/>
		<stop  offset="0.1546" style="stop-color:#C0C1C3"/>
		<stop  offset="0.3638" style="stop-color:#DBDCDD"/>
		<stop  offset="0.5748" style="stop-color:#EFEFF0"/>
		<stop  offset="0.7864" style="stop-color:#FBFBFB"/>
		<stop  offset="1" style="stop-color:#FFFFFF"/>
	</radialGradient>
	<path fill="url(#SVGID_20_)" d="M217.064,497.837c-15.063-15.521-3.932-50.757,24.863-78.719
		c28.798-27.966,64.35-38.062,79.41-22.554c15.07,15.514,3.93,50.756-24.857,78.72C267.685,503.25,232.128,513.344,217.064,497.837z
		"/>
	
		<radialGradient id="SVGID_21_" cx="1243.6885" cy="1505.2773" r="128.8721" fx="1141.5951" fy="1505.2786" gradientTransform="matrix(-0.4046 0.393 -0.2116 -0.2179 1049.8062 252.3041)" gradientUnits="userSpaceOnUse">
		<stop  offset="0" style="stop-color:#A6A8AB"/>
		<stop  offset="0.1546" style="stop-color:#C0C1C3"/>
		<stop  offset="0.3638" style="stop-color:#DBDCDD"/>
		<stop  offset="0.5748" style="stop-color:#EFEFF0"/>
		<stop  offset="0.7864" style="stop-color:#FBFBFB"/>
		<stop  offset="1" style="stop-color:#FFFFFF"/>
	</radialGradient>
	<path fill="url(#SVGID_21_)" d="M175.955,463.708c-15.061-15.512-3.934-50.761,24.861-78.715
		c28.803-27.974,64.352-38.064,79.415-22.557c15.066,15.514,3.93,50.756-24.861,78.72
		C226.577,469.117,191.018,479.206,175.955,463.708z"/>
	
		<radialGradient id="SVGID_22_" cx="1277.8906" cy="1410.3398" r="128.8726" fx="1175.7969" fy="1410.3411" gradientTransform="matrix(-0.4046 0.393 -0.2116 -0.2179 1049.8062 252.3041)" gradientUnits="userSpaceOnUse">
		<stop  offset="0" style="stop-color:#A6A8AB"/>
		<stop  offset="0.1546" style="stop-color:#C0C1C3"/>
		<stop  offset="0.3638" style="stop-color:#DBDCDD"/>
		<stop  offset="0.5748" style="stop-color:#EFEFF0"/>
		<stop  offset="0.7864" style="stop-color:#FBFBFB"/>
		<stop  offset="1" style="stop-color:#FFFFFF"/>
	</radialGradient>
	<path fill="url(#SVGID_22_)" d="M182.206,497.837c-15.063-15.517-3.934-50.757,24.864-78.719
		c28.797-27.97,64.346-38.062,79.413-22.554c15.066,15.514,3.928,50.756-24.861,78.72
		C232.828,503.245,197.269,513.344,182.206,497.837z"/>
	
		<radialGradient id="SVGID_23_" cx="1174.0498" cy="1424.0449" r="209.3774" fx="1173.0101" fy="1414.4869" gradientTransform="matrix(-0.2167 0.2105 -0.2116 -0.2179 831.7271 464.006)" gradientUnits="userSpaceOnUse">
		<stop  offset="0" style="stop-color:#A6A8AB"/>
		<stop  offset="0.2643" style="stop-color:#C1C2C4"/>
		<stop  offset="0.7531" style="stop-color:#EEEEEF"/>
		<stop  offset="1" style="stop-color:#FFFFFF"/>
	</radialGradient>
	<path fill="url(#SVGID_23_)" d="M230.615,444.9c-24.478-25.21-24.01-65.363,1.049-89.688c25.057-24.338,65.203-23.632,89.682,1.568
		c24.481,25.212,24.004,65.36-1.046,89.694C295.25,470.804,255.09,470.098,230.615,444.9z"/>
	<linearGradient id="SVGID_24_" gradientUnits="userSpaceOnUse" x1="250.1113" y1="424.7324" x2="337.9238" y2="336.92">
		<stop  offset="0" style="stop-color:#E6E7E8"/>
		<stop  offset="1" style="stop-color:#FFFFFF"/>
	</linearGradient>
	<path fill="url(#SVGID_24_)" d="M356.72,381.632c0,35.075-28.434,63.504-63.509,63.504c-35.073,0-63.509-28.429-63.509-63.504
		c0-35.071,28.436-63.51,63.509-63.51C328.286,318.122,356.72,346.561,356.72,381.632z"/>
	<path opacity="0.3" fill="#662D91" d="M235.824,323.043C235.823,323.043,235.823,323.043,235.824,323.043
		c0.012-0.012,0.026-0.026,0.04-0.037C235.851,323.017,235.836,323.031,235.824,323.043z"/>
	<g>
		<path fill="#666666" d="M265.755,403.755c0,0.559-0.093,1.087-0.282,1.587c-0.185,0.5-0.439,0.976-0.759,1.434
			c-0.322,0.459-0.686,0.899-1.093,1.318c-0.405,0.427-0.837,0.839-1.293,1.249h0.024c-0.472,0.438-0.947,0.892-1.42,1.355
			c-0.476,0.465-0.914,0.978-1.321,1.535c-0.407,0.559-0.755,1.173-1.042,1.84c-0.288,0.669-0.481,1.42-0.585,2.249h7.744v1.015
			h-8.81c0.018-1.116,0.169-2.107,0.459-2.97c0.287-0.864,0.655-1.643,1.102-2.335c0.448-0.695,0.949-1.318,1.499-1.869
			c0.549-0.55,1.105-1.078,1.663-1.585c0.407-0.373,0.796-0.753,1.167-1.145c0.373-0.387,0.703-0.78,0.99-1.179
			c0.29-0.396,0.517-0.802,0.685-1.219c0.171-0.412,0.255-0.841,0.255-1.281s-0.072-0.859-0.215-1.258
			c-0.144-0.396-0.365-0.746-0.661-1.052c-0.296-0.304-0.663-0.547-1.104-0.723c-0.44-0.179-0.947-0.269-1.525-0.269
			c-0.709,0-1.354,0.157-1.929,0.47c-0.575,0.313-1.058,0.732-1.446,1.256l-0.836-0.559c0.473-0.66,1.078-1.188,1.814-1.587
			c0.735-0.396,1.537-0.595,2.397-0.595c0.747,0,1.402,0.118,1.97,0.356c0.565,0.236,1.039,0.552,1.421,0.952
			c0.38,0.398,0.663,0.853,0.848,1.369C265.662,402.634,265.755,403.181,265.755,403.755z"/>
		<path fill="#666666" d="M276.442,410.635c0-0.625-0.111-1.206-0.33-1.739s-0.521-0.989-0.902-1.371
			c-0.379-0.38-0.824-0.677-1.333-0.888c-0.508-0.213-1.049-0.319-1.625-0.319c-0.405,0-0.792,0.056-1.156,0.166
			c-0.363,0.109-0.705,0.258-1.025,0.445h-1.018v-7.364h7.616v1.019h-6.598v5.203c0.658-0.321,1.386-0.483,2.181-0.483
			c0.71,0,1.383,0.137,2.018,0.405c0.634,0.271,1.19,0.646,1.663,1.121c0.474,0.473,0.848,1.033,1.118,1.687
			c0.271,0.65,0.406,1.357,0.406,2.119v1.499c0,0.76-0.135,1.467-0.406,2.12c-0.27,0.648-0.644,1.211-1.118,1.687
			c-0.473,0.473-1.029,0.848-1.663,1.119c-0.635,0.269-1.308,0.405-2.018,0.405c-0.861,0-1.663-0.195-2.399-0.584
			c-0.734-0.39-1.341-0.906-1.814-1.55l0.836-0.586c0.389,0.528,0.873,0.942,1.448,1.246s1.218,0.459,1.929,0.459
			c0.577,0,1.118-0.106,1.625-0.32c0.509-0.211,0.953-0.507,1.333-0.89c0.381-0.38,0.683-0.836,0.902-1.369
			c0.219-0.532,0.33-1.111,0.33-1.737V410.635z"/>
		<path fill="#666666" d="M279.488,402.104c0-0.371,0.068-0.719,0.203-1.04c0.136-0.322,0.326-0.603,0.57-0.839
			c0.246-0.236,0.529-0.424,0.852-0.57c0.322-0.144,0.67-0.215,1.041-0.215c0.373,0,0.719,0.071,1.042,0.215
			c0.319,0.146,0.599,0.334,0.837,0.57s0.427,0.517,0.572,0.839c0.143,0.321,0.215,0.669,0.215,1.04c0,0.375-0.072,0.72-0.215,1.042
			c-0.146,0.32-0.334,0.604-0.572,0.851c-0.238,0.245-0.518,0.438-0.837,0.572c-0.323,0.134-0.669,0.203-1.042,0.203
			c-0.371,0-0.719-0.069-1.041-0.203c-0.322-0.135-0.605-0.327-0.852-0.572c-0.244-0.246-0.435-0.53-0.57-0.851
			C279.557,402.823,279.488,402.479,279.488,402.104z M280.504,402.104c0,0.458,0.16,0.848,0.482,1.17
			c0.32,0.321,0.711,0.481,1.168,0.481s0.846-0.16,1.168-0.481c0.322-0.322,0.482-0.712,0.482-1.17c0-0.454-0.16-0.846-0.482-1.166
			c-0.322-0.321-0.711-0.483-1.168-0.483s-0.848,0.162-1.168,0.483C280.664,401.258,280.504,401.649,280.504,402.104z
			 M282.078,417.337l4.265-17.772h1.041l-4.264,17.772H282.078z M284.642,414.796c0-0.368,0.069-0.718,0.203-1.038
			c0.137-0.322,0.326-0.603,0.573-0.839c0.244-0.238,0.527-0.426,0.85-0.572c0.32-0.141,0.668-0.213,1.039-0.213
			c0.373,0,0.72,0.072,1.043,0.213c0.32,0.146,0.6,0.334,0.837,0.572c0.237,0.236,0.427,0.517,0.571,0.839
			c0.145,0.32,0.217,0.67,0.217,1.038c0,0.375-0.072,0.721-0.217,1.042c-0.145,0.322-0.334,0.607-0.571,0.851
			c-0.237,0.248-0.517,0.438-0.837,0.572c-0.323,0.135-0.67,0.204-1.043,0.204c-0.371,0-0.719-0.069-1.039-0.204
			c-0.322-0.135-0.605-0.324-0.85-0.572c-0.247-0.243-0.437-0.528-0.573-0.851C284.711,415.517,284.642,415.171,284.642,414.796z
			 M285.659,414.796c0,0.461,0.159,0.85,0.481,1.17c0.322,0.322,0.711,0.484,1.166,0.484c0.46,0,0.848-0.162,1.17-0.484
			c0.32-0.32,0.481-0.709,0.481-1.17c0-0.454-0.161-0.846-0.481-1.165c-0.322-0.32-0.71-0.482-1.17-0.482
			c-0.455,0-0.844,0.162-1.166,0.482C285.818,413.95,285.659,414.342,285.659,414.796z"/>
	</g>
	<linearGradient id="SVGID_25_" gradientUnits="userSpaceOnUse" x1="293.7544" y1="428.5449" x2="293.7544" y2="333.7393">
		<stop  offset="0.0806" style="stop-color:#662D91"/>
		<stop  offset="1" style="stop-color:#7F43AD"/>
	</linearGradient>
	<path fill="url(#SVGID_25_)" d="M330.873,351.504c-16.523-20.504-46.539-23.73-67.04-7.211
		c-13.888,11.193-19.838,28.572-17.105,44.992l28.245-4.706c-0.155-0.962-0.257-1.942-0.257-2.949
		c0-10.214,8.281-18.495,18.496-18.495c10.215,0,18.495,8.281,18.495,18.495c0,9.07-6.533,16.599-15.148,18.176l4.482,28.739
		c8.028-1.237,15.849-4.538,22.627-10.003C344.169,402.022,347.396,372.006,330.873,351.504z"/>
</g>
<g>
	
		<radialGradient id="SVGID_26_" cx="1225.8184" cy="1688.7969" r="159.083" fx="1099.7917" fy="1688.7985" gradientTransform="matrix(-0.4046 0.393 -0.2116 -0.2179 1049.8062 252.3041)" gradientUnits="userSpaceOnUse">
		<stop  offset="0" style="stop-color:#A6A8AB"/>
		<stop  offset="0.1546" style="stop-color:#C0C1C3"/>
		<stop  offset="0.3638" style="stop-color:#DBDCDD"/>
		<stop  offset="0.5748" style="stop-color:#EFEFF0"/>
		<stop  offset="0.7864" style="stop-color:#FBFBFB"/>
		<stop  offset="1" style="stop-color:#FFFFFF"/>
	</radialGradient>
	<path fill="url(#SVGID_26_)" d="M132.129,428.565c-18.595-19.155-4.854-62.659,30.691-97.169
		c35.55-34.526,79.435-46.99,98.029-27.846c18.601,19.151,4.851,62.654-30.687,97.177
		C194.616,435.251,150.725,447.71,132.129,428.565z"/>
	
		<radialGradient id="SVGID_27_" cx="1238.3301" cy="1904.709" r="159.0845" fx="1112.3022" fy="1904.7106" gradientTransform="matrix(-0.4046 0.393 -0.2116 -0.2179 1049.8062 252.3041)" gradientUnits="userSpaceOnUse">
		<stop  offset="0" style="stop-color:#A6A8AB"/>
		<stop  offset="0.1546" style="stop-color:#C0C1C3"/>
		<stop  offset="0.3638" style="stop-color:#DBDCDD"/>
		<stop  offset="0.5748" style="stop-color:#EFEFF0"/>
		<stop  offset="0.7864" style="stop-color:#FBFBFB"/>
		<stop  offset="1" style="stop-color:#FFFFFF"/>
	</radialGradient>
	<path fill="url(#SVGID_27_)" d="M81.38,386.437c-18.59-19.149-4.854-62.657,30.691-97.17
		c35.555-34.528,79.438-46.985,98.032-27.843c18.6,19.148,4.853,62.656-30.69,97.174C143.87,393.112,99.974,405.571,81.38,386.437z"
		/>
	
		<radialGradient id="SVGID_28_" cx="1280.5469" cy="1787.5059" r="159.085" fx="1154.5187" fy="1787.5074" gradientTransform="matrix(-0.4046 0.393 -0.2116 -0.2179 1049.8062 252.3041)" gradientUnits="userSpaceOnUse">
		<stop  offset="0" style="stop-color:#A6A8AB"/>
		<stop  offset="0.1546" style="stop-color:#C0C1C3"/>
		<stop  offset="0.3638" style="stop-color:#DBDCDD"/>
		<stop  offset="0.5748" style="stop-color:#EFEFF0"/>
		<stop  offset="0.7864" style="stop-color:#FBFBFB"/>
		<stop  offset="1" style="stop-color:#FFFFFF"/>
	</radialGradient>
	<path fill="url(#SVGID_28_)" d="M89.098,428.565c-18.594-19.151-4.855-62.659,30.691-97.169
		c35.55-34.529,79.433-46.99,98.03-27.846c18.601,19.151,4.849,62.654-30.688,97.177C151.588,435.244,107.691,447.71,89.098,428.565
		z"/>
	
		<radialGradient id="SVGID_29_" cx="1108.5605" cy="1804.8145" r="258.459" fx="1107.2772" fy="1793.0159" gradientTransform="matrix(-0.2167 0.2105 -0.2116 -0.2179 831.7271 464.006)" gradientUnits="userSpaceOnUse">
		<stop  offset="0" style="stop-color:#A6A8AB"/>
		<stop  offset="0.2643" style="stop-color:#C1C2C4"/>
		<stop  offset="0.7531" style="stop-color:#EEEEEF"/>
		<stop  offset="1" style="stop-color:#FFFFFF"/>
	</radialGradient>
	<path fill="url(#SVGID_29_)" d="M153.602,358.475c-30.216-31.121-29.639-80.687,1.294-110.712
		c30.931-30.046,80.489-29.172,110.707,1.937c30.222,31.116,29.63,80.68-1.292,110.717
		C233.387,390.451,183.813,389.577,153.602,358.475z"/>
	
		<radialGradient id="SVGID_30_" cx="1208.8789" cy="1689.2578" r="159.085" fx="1082.8507" fy="1689.2594" gradientTransform="matrix(-0.4046 0.393 -0.2116 -0.2179 1049.8062 252.3041)" gradientUnits="userSpaceOnUse">
		<stop  offset="0" style="stop-color:#A6A8AB"/>
		<stop  offset="0.1546" style="stop-color:#C0C1C3"/>
		<stop  offset="0.3638" style="stop-color:#DBDCDD"/>
		<stop  offset="0.5748" style="stop-color:#EFEFF0"/>
		<stop  offset="0.7864" style="stop-color:#FBFBFB"/>
		<stop  offset="1" style="stop-color:#FFFFFF"/>
	</radialGradient>
	<path fill="url(#SVGID_30_)" d="M138.886,421.813c-18.597-19.163-4.855-62.659,30.689-97.174
		c35.55-34.524,79.434-46.987,98.03-27.846c18.601,19.153,4.85,62.659-30.689,97.177
		C201.373,428.494,157.48,440.952,138.886,421.813z"/>
	
		<radialGradient id="SVGID_31_" cx="1221.3906" cy="1905.166" r="159.0864" fx="1095.3612" fy="1905.1676" gradientTransform="matrix(-0.4046 0.393 -0.2116 -0.2179 1049.8062 252.3041)" gradientUnits="userSpaceOnUse">
		<stop  offset="0" style="stop-color:#A6A8AB"/>
		<stop  offset="0.1546" style="stop-color:#C0C1C3"/>
		<stop  offset="0.3638" style="stop-color:#DBDCDD"/>
		<stop  offset="0.5748" style="stop-color:#EFEFF0"/>
		<stop  offset="0.7864" style="stop-color:#FBFBFB"/>
		<stop  offset="1" style="stop-color:#FFFFFF"/>
	</radialGradient>
	<path fill="url(#SVGID_31_)" d="M88.136,379.679c-18.59-19.149-4.854-62.657,30.691-97.17
		c35.556-34.527,79.438-46.984,98.033-27.84c18.599,19.149,4.852,62.655-30.691,97.174
		C150.626,386.357,106.731,398.813,88.136,379.679z"/>
	
		<radialGradient id="SVGID_32_" cx="1263.6094" cy="1787.9688" r="159.0859" fx="1137.5803" fy="1787.9703" gradientTransform="matrix(-0.4046 0.393 -0.2116 -0.2179 1049.8062 252.3041)" gradientUnits="userSpaceOnUse">
		<stop  offset="0" style="stop-color:#A6A8AB"/>
		<stop  offset="0.1546" style="stop-color:#C0C1C3"/>
		<stop  offset="0.3638" style="stop-color:#DBDCDD"/>
		<stop  offset="0.5748" style="stop-color:#EFEFF0"/>
		<stop  offset="0.7864" style="stop-color:#FBFBFB"/>
		<stop  offset="1" style="stop-color:#FFFFFF"/>
	</radialGradient>
	<path fill="url(#SVGID_32_)" d="M95.854,421.813c-18.595-19.155-4.855-62.659,30.691-97.174
		c35.55-34.529,79.433-46.987,98.031-27.846c18.6,19.153,4.848,62.659-30.689,97.177
		C158.345,428.491,114.448,440.952,95.854,421.813z"/>
	
		<radialGradient id="SVGID_33_" cx="1076.9365" cy="1805.2715" r="258.4594" fx="1075.6532" fy="1793.4729" gradientTransform="matrix(-0.2167 0.2105 -0.2116 -0.2179 831.7271 464.006)" gradientUnits="userSpaceOnUse">
		<stop  offset="0" style="stop-color:#A6A8AB"/>
		<stop  offset="0.2643" style="stop-color:#C1C2C4"/>
		<stop  offset="0.7531" style="stop-color:#EEEEEF"/>
		<stop  offset="1" style="stop-color:#FFFFFF"/>
	</radialGradient>
	<path fill="url(#SVGID_33_)" d="M160.356,351.718c-30.215-31.117-29.638-80.688,1.296-110.711
		c30.931-30.046,80.489-29.172,110.707,1.936c30.222,31.118,29.63,80.681-1.292,110.715
		C240.143,383.698,190.569,382.822,160.356,351.718z"/>
	<linearGradient id="SVGID_34_" gradientUnits="userSpaceOnUse" x1="175.9243" y1="335.3213" x2="285.4512" y2="225.7944">
		<stop  offset="0" style="stop-color:#E6E7E8"/>
		<stop  offset="1" style="stop-color:#FFFFFF"/>
	</linearGradient>
	<path fill="url(#SVGID_34_)" d="M309.27,280.373c0,43.295-35.1,78.394-78.4,78.394c-43.294,0-78.396-35.099-78.396-78.394
		c0-43.294,35.102-78.396,78.396-78.396C274.169,201.977,309.27,237.079,309.27,280.373z"/>
	<path opacity="0.3" fill="#662D91" d="M160.03,208.05L160.03,208.05c0.015-0.016,0.032-0.031,0.05-0.047
		C160.064,208.019,160.047,208.034,160.03,208.05z"/>
	<g>
		<path fill="#666666" d="M180.16,280.209h0.158c0.544,0,1.054-0.109,1.535-0.329c0.48-0.221,0.897-0.512,1.253-0.878
			c0.356-0.366,0.632-0.785,0.83-1.254c0.2-0.47,0.3-0.956,0.3-1.457c0-0.648-0.105-1.244-0.313-1.788
			c-0.21-0.542-0.502-1.006-0.878-1.393c-0.377-0.387-0.81-0.686-1.301-0.894c-0.492-0.209-1.017-0.313-1.584-0.313
			c-0.877,0-1.67,0.192-2.381,0.579c-0.709,0.388-1.306,0.904-1.786,1.553l-1.033-0.69c0.584-0.813,1.332-1.467,2.239-1.96
			c0.909-0.489,1.899-0.734,2.962-0.734c0.732,0,1.42,0.142,2.069,0.423c0.647,0.28,1.211,0.672,1.694,1.173
			c0.479,0.505,0.861,1.098,1.143,1.788c0.281,0.688,0.422,1.443,0.422,2.256c0,0.938-0.25,1.801-0.753,2.586
			c-0.499,0.782-1.419,1.415-2.757,1.895c1.65,0.503,2.831,1.249,3.542,2.24c0.709,0.994,1.064,2.097,1.064,3.309
			c0,0.94-0.166,1.812-0.499,2.615c-0.335,0.804-0.797,1.499-1.38,2.085c-0.584,0.584-1.271,1.045-2.053,1.381
			c-0.783,0.333-1.614,0.498-2.492,0.498c-1.063,0-2.053-0.239-2.962-0.719c-0.907-0.481-1.654-1.119-2.239-1.913l1.033-0.723
			c0.48,0.65,1.077,1.162,1.786,1.538c0.711,0.375,1.504,0.563,2.381,0.563c0.712,0,1.38-0.127,2.007-0.392
			c0.626-0.259,1.176-0.625,1.644-1.096c0.47-0.47,0.842-1.035,1.113-1.693c0.271-0.657,0.409-1.374,0.409-2.145
			c0-0.649-0.139-1.266-0.409-1.852c-0.271-0.584-0.643-1.101-1.113-1.55c-0.468-0.449-1.018-0.804-1.644-1.065
			c-0.627-0.262-1.295-0.392-2.007-0.392V280.209z"/>
		<path fill="#666666" d="M196.143,277.89c0.881,0,1.708,0.167,2.492,0.501c0.786,0.333,1.47,0.794,2.053,1.38
			c0.584,0.584,1.045,1.279,1.38,2.083c0.333,0.804,0.499,1.675,0.499,2.615v1.852c0,0.94-0.166,1.812-0.499,2.615
			c-0.335,0.804-0.796,1.499-1.38,2.085c-0.583,0.584-1.267,1.045-2.053,1.381c-0.783,0.333-1.61,0.498-2.492,0.498
			c-0.877,0-1.707-0.165-2.49-0.498c-0.785-0.336-1.468-0.797-2.052-1.381c-0.586-0.586-1.044-1.281-1.379-2.085
			c-0.335-0.804-0.502-1.675-0.502-2.615v-1.852c0-1.628,0.113-3.236,0.345-4.825c0.23-1.587,0.683-3.023,1.363-4.309
			c0.679-1.286,1.634-2.35,2.866-3.197c1.234-0.846,2.841-1.341,4.828-1.487v1.252c-1.295,0-2.397,0.214-3.307,0.643
			c-0.907,0.428-1.67,1.007-2.289,1.739c-0.615,0.729-1.102,1.599-1.456,2.602c-0.355,1.003-0.617,2.08-0.784,3.227
			c0.605-0.667,1.315-1.206,2.13-1.612C194.233,278.092,195.141,277.89,196.143,277.89z M196.143,279.141
			c-0.688,0-1.336,0.12-1.94,0.364c-0.606,0.238-1.145,0.576-1.616,1.017c-0.47,0.438-0.846,0.961-1.129,1.566
			c-0.28,0.606-0.443,1.276-0.485,2.006v2.227c0,0.771,0.136,1.487,0.41,2.145c0.269,0.658,0.641,1.224,1.112,1.693
			c0.469,0.471,1.017,0.837,1.645,1.096c0.627,0.265,1.294,0.392,2.004,0.392c0.713,0,1.38-0.127,2.007-0.392
			c0.628-0.259,1.176-0.625,1.645-1.096c0.471-0.47,0.842-1.035,1.112-1.693c0.274-0.657,0.41-1.374,0.41-2.145v-1.852
			c0-0.771-0.136-1.487-0.41-2.145c-0.27-0.661-0.641-1.224-1.112-1.694c-0.468-0.47-1.016-0.834-1.645-1.096
			C197.522,279.272,196.855,279.141,196.143,279.141z"/>
		<path fill="#666666" d="M205.078,273.938c0-0.456,0.081-0.885,0.249-1.281c0.166-0.398,0.403-0.743,0.704-1.035
			c0.303-0.292,0.653-0.526,1.05-0.704c0.399-0.178,0.827-0.266,1.287-0.266c0.458,0,0.886,0.088,1.286,0.266
			c0.395,0.178,0.738,0.412,1.032,0.704c0.292,0.292,0.529,0.637,0.705,1.035c0.177,0.396,0.266,0.825,0.266,1.281
			c0,0.464-0.089,0.89-0.266,1.288c-0.176,0.396-0.414,0.746-0.705,1.05c-0.294,0.303-0.637,0.537-1.032,0.706
			c-0.399,0.167-0.828,0.248-1.286,0.248c-0.46,0-0.888-0.081-1.287-0.248c-0.397-0.169-0.747-0.403-1.05-0.706
			c-0.3-0.304-0.538-0.653-0.704-1.05C205.158,274.827,205.078,274.401,205.078,273.938z M206.329,273.938
			c0,0.565,0.2,1.047,0.597,1.443c0.395,0.398,0.877,0.598,1.441,0.598c0.563,0,1.042-0.199,1.44-0.598
			c0.397-0.396,0.596-0.878,0.596-1.443c0-0.561-0.199-1.042-0.596-1.438c-0.397-0.396-0.877-0.596-1.44-0.596
			c-0.564,0-1.046,0.199-1.441,0.596C206.529,272.896,206.329,273.377,206.329,273.938z M208.272,292.744l5.265-21.938h1.285
			l-5.265,21.938H208.272z M211.437,289.607c0-0.457,0.084-0.886,0.251-1.284c0.167-0.394,0.401-0.741,0.705-1.033
			c0.304-0.291,0.654-0.525,1.051-0.704c0.395-0.178,0.824-0.266,1.283-0.266c0.46,0,0.888,0.088,1.287,0.266
			c0.397,0.179,0.741,0.413,1.035,0.704c0.29,0.292,0.525,0.64,0.704,1.033c0.179,0.398,0.268,0.827,0.268,1.284
			c0,0.461-0.089,0.89-0.268,1.288c-0.178,0.396-0.414,0.745-0.704,1.049c-0.293,0.304-0.638,0.538-1.035,0.704
			c-0.399,0.167-0.827,0.251-1.287,0.251c-0.458,0-0.888-0.084-1.283-0.251c-0.396-0.166-0.747-0.4-1.051-0.704
			s-0.538-0.653-0.705-1.049C211.521,290.497,211.437,290.068,211.437,289.607z M212.693,289.607c0,0.567,0.195,1.047,0.593,1.443
			c0.398,0.398,0.877,0.595,1.44,0.595c0.566,0,1.047-0.196,1.444-0.595c0.395-0.396,0.594-0.876,0.594-1.443
			c0-0.563-0.199-1.043-0.594-1.438c-0.396-0.396-0.878-0.596-1.444-0.596c-0.563,0-1.042,0.199-1.44,0.596
			C212.888,288.564,212.693,289.044,212.693,289.607z"/>
	</g>
	<linearGradient id="SVGID_35_" gradientUnits="userSpaceOnUse" x1="254.1924" y1="339.2334" x2="254.1924" y2="221.5088">
		<stop  offset="0.129" style="stop-color:#29ABE2"/>
		<stop  offset="0.914" style="stop-color:#61D0FF"/>
	</linearGradient>
	<path fill="url(#SVGID_35_)" d="M289.109,271.851c-4.709-32.164-34.596-54.421-66.761-49.714l5.633,38.485
		c0.946-0.137,1.905-0.232,2.89-0.232c11.037,0,19.983,8.947,19.983,19.983s-8.947,19.982-19.983,19.982
		c-1.438,0-2.838-0.159-4.19-0.448l-8.034,38.048c6.64,1.411,13.638,1.693,20.746,0.653
		C271.561,333.9,293.816,304.007,289.109,271.851z"/>
</g>
<g>
	<g>
		
			<radialGradient id="SVGID_36_" cx="1605.8008" cy="1590.5488" r="43.3076" fx="1571.4922" fy="1590.5492" gradientTransform="matrix(-0.4046 0.393 -0.2116 -0.2179 1049.8062 252.3041)" gradientUnits="userSpaceOnUse">
			<stop  offset="0" style="stop-color:#A6A8AB"/>
			<stop  offset="0.1546" style="stop-color:#C0C1C3"/>
			<stop  offset="0.3638" style="stop-color:#DBDCDD"/>
			<stop  offset="0.5748" style="stop-color:#EFEFF0"/>
			<stop  offset="0.7864" style="stop-color:#FBFBFB"/>
			<stop  offset="1" style="stop-color:#FFFFFF"/>
		</radialGradient>
		<path fill="url(#SVGID_36_)" d="M46.02,553.819c-5.063-5.216-1.322-17.057,8.354-26.453c9.678-9.398,21.625-12.791,26.687-7.58
			c5.063,5.214,1.321,17.058-8.354,26.455C63.029,555.638,51.08,559.03,46.02,553.819z"/>
		
			<radialGradient id="SVGID_37_" cx="1609.207" cy="1649.3223" r="43.3057" fx="1574.9" fy="1649.3226" gradientTransform="matrix(-0.4046 0.393 -0.2116 -0.2179 1049.8062 252.3041)" gradientUnits="userSpaceOnUse">
			<stop  offset="0" style="stop-color:#A6A8AB"/>
			<stop  offset="0.1546" style="stop-color:#C0C1C3"/>
			<stop  offset="0.3638" style="stop-color:#DBDCDD"/>
			<stop  offset="0.5748" style="stop-color:#EFEFF0"/>
			<stop  offset="0.7864" style="stop-color:#FBFBFB"/>
			<stop  offset="1" style="stop-color:#FFFFFF"/>
		</radialGradient>
		<path fill="url(#SVGID_37_)" d="M32.203,542.35c-5.061-5.212-1.321-17.057,8.355-26.451c9.679-9.4,21.625-12.792,26.687-7.581
			c5.063,5.215,1.321,17.058-8.354,26.455C49.215,544.167,37.266,547.56,32.203,542.35z"/>
		
			<radialGradient id="SVGID_38_" cx="1620.7002" cy="1617.416" r="43.3081" fx="1586.3912" fy="1617.4164" gradientTransform="matrix(-0.4046 0.393 -0.2116 -0.2179 1049.8062 252.3041)" gradientUnits="userSpaceOnUse">
			<stop  offset="0" style="stop-color:#A6A8AB"/>
			<stop  offset="0.1546" style="stop-color:#C0C1C3"/>
			<stop  offset="0.3638" style="stop-color:#DBDCDD"/>
			<stop  offset="0.5748" style="stop-color:#EFEFF0"/>
			<stop  offset="0.7864" style="stop-color:#FBFBFB"/>
			<stop  offset="1" style="stop-color:#FFFFFF"/>
		</radialGradient>
		<path fill="url(#SVGID_38_)" d="M34.305,553.819c-5.063-5.215-1.322-17.057,8.354-26.453c9.679-9.399,21.624-12.791,26.687-7.58
			c5.063,5.215,1.32,17.058-8.354,26.455C51.316,555.638,39.366,559.03,34.305,553.819z"/>
		
			<radialGradient id="SVGID_39_" cx="1944.6719" cy="1621.9668" r="70.3604" fx="1944.3225" fy="1618.7549" gradientTransform="matrix(-0.2167 0.2105 -0.2116 -0.2179 831.7271 464.006)" gradientUnits="userSpaceOnUse">
			<stop  offset="0" style="stop-color:#A6A8AB"/>
			<stop  offset="0.2643" style="stop-color:#C1C2C4"/>
			<stop  offset="0.7531" style="stop-color:#EEEEEF"/>
			<stop  offset="1" style="stop-color:#FFFFFF"/>
		</radialGradient>
		<path fill="url(#SVGID_39_)" d="M51.863,534.737c-8.225-8.471-8.068-21.965,0.354-30.139c8.42-8.179,21.911-7.941,30.137,0.527
			c8.229,8.472,8.066,21.965-0.352,30.141C73.584,543.444,60.088,543.206,51.863,534.737z"/>
		
			<radialGradient id="SVGID_40_" cx="1594.6455" cy="1590.8496" r="43.3076" fx="1560.3369" fy="1590.85" gradientTransform="matrix(-0.4046 0.393 -0.2116 -0.2179 1049.8062 252.3041)" gradientUnits="userSpaceOnUse">
			<stop  offset="0" style="stop-color:#A6A8AB"/>
			<stop  offset="0.1546" style="stop-color:#C0C1C3"/>
			<stop  offset="0.3638" style="stop-color:#DBDCDD"/>
			<stop  offset="0.5748" style="stop-color:#EFEFF0"/>
			<stop  offset="0.7864" style="stop-color:#FBFBFB"/>
			<stop  offset="1" style="stop-color:#FFFFFF"/>
		</radialGradient>
		<path fill="url(#SVGID_40_)" d="M50.469,549.369c-5.063-5.216-1.322-17.057,8.354-26.452c9.679-9.398,21.625-12.791,26.688-7.58
			c5.063,5.213,1.32,17.057-8.354,26.454C67.479,551.188,55.531,554.581,50.469,549.369z"/>
		
			<radialGradient id="SVGID_41_" cx="1598.0508" cy="1649.625" r="43.3071" fx="1563.7426" fy="1649.6254" gradientTransform="matrix(-0.4046 0.393 -0.2116 -0.2179 1049.8062 252.3041)" gradientUnits="userSpaceOnUse">
			<stop  offset="0" style="stop-color:#A6A8AB"/>
			<stop  offset="0.1546" style="stop-color:#C0C1C3"/>
			<stop  offset="0.3638" style="stop-color:#DBDCDD"/>
			<stop  offset="0.5748" style="stop-color:#EFEFF0"/>
			<stop  offset="0.7864" style="stop-color:#FBFBFB"/>
			<stop  offset="1" style="stop-color:#FFFFFF"/>
		</radialGradient>
		<path fill="url(#SVGID_41_)" d="M36.652,537.899c-5.061-5.212-1.32-17.057,8.355-26.451c9.68-9.4,21.625-12.791,26.688-7.58
			c5.063,5.214,1.32,17.057-8.355,26.454C53.664,539.718,41.715,543.109,36.652,537.899z"/>
		
			<radialGradient id="SVGID_42_" cx="1609.5449" cy="1617.7207" r="43.3076" fx="1575.2363" fy="1617.7211" gradientTransform="matrix(-0.4046 0.393 -0.2116 -0.2179 1049.8062 252.3041)" gradientUnits="userSpaceOnUse">
			<stop  offset="0" style="stop-color:#A6A8AB"/>
			<stop  offset="0.1546" style="stop-color:#C0C1C3"/>
			<stop  offset="0.3638" style="stop-color:#DBDCDD"/>
			<stop  offset="0.5748" style="stop-color:#EFEFF0"/>
			<stop  offset="0.7864" style="stop-color:#FBFBFB"/>
			<stop  offset="1" style="stop-color:#FFFFFF"/>
		</radialGradient>
		<path fill="url(#SVGID_42_)" d="M38.754,549.369c-5.063-5.214-1.322-17.057,8.355-26.452c9.678-9.4,21.623-12.791,26.686-7.58
			c5.064,5.214,1.32,17.057-8.354,26.454C55.766,551.188,43.815,554.581,38.754,549.369z"/>
		
			<radialGradient id="SVGID_43_" cx="1923.8438" cy="1622.2637" r="70.3604" fx="1923.4944" fy="1619.0518" gradientTransform="matrix(-0.2167 0.2105 -0.2116 -0.2179 831.7271 464.006)" gradientUnits="userSpaceOnUse">
			<stop  offset="0" style="stop-color:#A6A8AB"/>
			<stop  offset="0.2643" style="stop-color:#C1C2C4"/>
			<stop  offset="0.7531" style="stop-color:#EEEEEF"/>
			<stop  offset="1" style="stop-color:#FFFFFF"/>
		</radialGradient>
		<path fill="url(#SVGID_43_)" d="M56.313,530.288c-8.226-8.471-8.068-21.965,0.353-30.139c8.42-8.18,21.912-7.941,30.138,0.527
			c8.228,8.471,8.065,21.964-0.352,30.141C78.033,538.994,64.538,538.757,56.313,530.288z"/>
		<circle fill="#FFFFFF" cx="72.898" cy="513.477" r="21.342"/>
		<linearGradient id="SVGID_44_" gradientUnits="userSpaceOnUse" x1="54.3398" y1="525.2207" x2="90.7959" y2="503.0092">
			<stop  offset="0" style="stop-color:#E6E7E8"/>
			<stop  offset="1" style="stop-color:#FFFFFF"/>
		</linearGradient>
		<circle fill="url(#SVGID_44_)" cx="72.898" cy="513.912" r="21.342"/>
	</g>
	<g>
		<linearGradient id="SVGID_45_" gradientUnits="userSpaceOnUse" x1="58.9854" y1="526.5" x2="84.853" y2="500.6324">
			<stop  offset="0.1452" style="stop-color:#F15A24"/>
			<stop  offset="1" style="stop-color:#F18C68"/>
		</linearGradient>
		<polygon fill="url(#SVGID_45_)" points="70.623,514.909 75.128,514.909 72.875,508.059 		"/>
		<linearGradient id="SVGID_46_" gradientUnits="userSpaceOnUse" x1="59.6489" y1="527.1641" x2="85.5162" y2="501.2968">
			<stop  offset="0.1452" style="stop-color:#F15A24"/>
			<stop  offset="1" style="stop-color:#F18C68"/>
		</linearGradient>
		<path fill="url(#SVGID_46_)" d="M72.898,495.683c-10.066,0-18.229,8.162-18.229,18.229s8.162,18.229,18.229,18.229
			c10.068,0,18.23-8.162,18.23-18.229S82.967,495.683,72.898,495.683z M77.099,520.962l-1.079-3.331h-6.287l-1.033,3.331h-3.519
			l5.349-15.062c0.281-0.72,0.813-1.079,1.596-1.079h2.627l5.865,16.141H77.099z"/>
	</g>
</g>
<g>
	<g>
		
			<radialGradient id="SVGID_47_" cx="1430.1816" cy="1273.8008" r="43.3062" fx="1395.8741" fy="1273.8011" gradientTransform="matrix(-0.4046 0.393 -0.2116 -0.2179 1049.8062 252.3041)" gradientUnits="userSpaceOnUse">
			<stop  offset="0" style="stop-color:#A6A8AB"/>
			<stop  offset="0.1546" style="stop-color:#C0C1C3"/>
			<stop  offset="0.3638" style="stop-color:#DBDCDD"/>
			<stop  offset="0.5748" style="stop-color:#EFEFF0"/>
			<stop  offset="0.7864" style="stop-color:#FBFBFB"/>
			<stop  offset="1" style="stop-color:#FFFFFF"/>
		</radialGradient>
		<path fill="url(#SVGID_47_)" d="M184.099,553.819c-5.063-5.216-1.321-17.057,8.354-26.452c9.678-9.398,21.624-12.791,26.686-7.58
			c5.064,5.213,1.321,17.057-8.354,26.454C201.109,555.639,189.16,559.031,184.099,553.819z"/>
		
			<radialGradient id="SVGID_48_" cx="1433.5859" cy="1332.5742" r="43.3062" fx="1399.2784" fy="1332.5746" gradientTransform="matrix(-0.4046 0.393 -0.2116 -0.2179 1049.8062 252.3041)" gradientUnits="userSpaceOnUse">
			<stop  offset="0" style="stop-color:#A6A8AB"/>
			<stop  offset="0.1546" style="stop-color:#C0C1C3"/>
			<stop  offset="0.3638" style="stop-color:#DBDCDD"/>
			<stop  offset="0.5748" style="stop-color:#EFEFF0"/>
			<stop  offset="0.7864" style="stop-color:#FBFBFB"/>
			<stop  offset="1" style="stop-color:#FFFFFF"/>
		</radialGradient>
		<path fill="url(#SVGID_48_)" d="M170.283,542.35c-5.061-5.212-1.322-17.057,8.354-26.451c9.679-9.4,21.626-12.791,26.687-7.58
			c5.064,5.214,1.321,17.057-8.354,26.454C187.295,544.168,175.345,547.56,170.283,542.35z"/>
		
			<radialGradient id="SVGID_49_" cx="1445.0801" cy="1300.6719" r="43.3091" fx="1410.7703" fy="1300.6722" gradientTransform="matrix(-0.4046 0.393 -0.2116 -0.2179 1049.8062 252.3041)" gradientUnits="userSpaceOnUse">
			<stop  offset="0" style="stop-color:#A6A8AB"/>
			<stop  offset="0.1546" style="stop-color:#C0C1C3"/>
			<stop  offset="0.3638" style="stop-color:#DBDCDD"/>
			<stop  offset="0.5748" style="stop-color:#EFEFF0"/>
			<stop  offset="0.7864" style="stop-color:#FBFBFB"/>
			<stop  offset="1" style="stop-color:#FFFFFF"/>
		</radialGradient>
		<path fill="url(#SVGID_49_)" d="M172.384,553.819c-5.062-5.214-1.321-17.057,8.354-26.452c9.678-9.4,21.625-12.791,26.688-7.58
			c5.063,5.214,1.32,17.057-8.354,26.454C189.396,555.639,177.445,559.031,172.384,553.819z"/>
		
			<radialGradient id="SVGID_50_" cx="1616.7813" cy="1305.207" r="70.3613" fx="1616.4319" fy="1301.995" gradientTransform="matrix(-0.2167 0.2105 -0.2116 -0.2179 831.7271 464.006)" gradientUnits="userSpaceOnUse">
			<stop  offset="0" style="stop-color:#A6A8AB"/>
			<stop  offset="0.2643" style="stop-color:#C1C2C4"/>
			<stop  offset="0.7531" style="stop-color:#EEEEEF"/>
			<stop  offset="1" style="stop-color:#FFFFFF"/>
		</radialGradient>
		<path fill="url(#SVGID_50_)" d="M189.943,534.738c-8.226-8.471-8.068-21.965,0.353-30.139c8.421-8.18,21.911-7.941,30.138,0.527
			c8.227,8.471,8.066,21.964-0.352,30.141C211.663,543.444,198.168,543.207,189.943,534.738z"/>
		
			<radialGradient id="SVGID_51_" cx="1419.0254" cy="1274.1016" r="43.3066" fx="1384.7175" fy="1274.1019" gradientTransform="matrix(-0.4046 0.393 -0.2116 -0.2179 1049.8062 252.3041)" gradientUnits="userSpaceOnUse">
			<stop  offset="0" style="stop-color:#A6A8AB"/>
			<stop  offset="0.1546" style="stop-color:#C0C1C3"/>
			<stop  offset="0.3638" style="stop-color:#DBDCDD"/>
			<stop  offset="0.5748" style="stop-color:#EFEFF0"/>
			<stop  offset="0.7864" style="stop-color:#FBFBFB"/>
			<stop  offset="1" style="stop-color:#FFFFFF"/>
		</radialGradient>
		<path fill="url(#SVGID_51_)" d="M188.548,549.369c-5.062-5.215-1.321-17.057,8.354-26.451c9.678-9.399,21.625-12.792,26.687-7.58
			c5.063,5.213,1.321,17.057-8.354,26.453C205.559,551.189,193.609,554.581,188.548,549.369z"/>
		
			<radialGradient id="SVGID_52_" cx="1422.4316" cy="1332.877" r="43.3057" fx="1388.1246" fy="1332.8773" gradientTransform="matrix(-0.4046 0.393 -0.2116 -0.2179 1049.8062 252.3041)" gradientUnits="userSpaceOnUse">
			<stop  offset="0" style="stop-color:#A6A8AB"/>
			<stop  offset="0.1546" style="stop-color:#C0C1C3"/>
			<stop  offset="0.3638" style="stop-color:#DBDCDD"/>
			<stop  offset="0.5748" style="stop-color:#EFEFF0"/>
			<stop  offset="0.7864" style="stop-color:#FBFBFB"/>
			<stop  offset="1" style="stop-color:#FFFFFF"/>
		</radialGradient>
		<path fill="url(#SVGID_52_)" d="M174.732,537.9c-5.061-5.213-1.321-17.057,8.355-26.451c9.679-9.4,21.625-12.791,26.687-7.58
			c5.063,5.213,1.321,17.057-8.354,26.453S179.795,543.109,174.732,537.9z"/>
		
			<radialGradient id="SVGID_53_" cx="1433.9238" cy="1300.9727" r="43.3066" fx="1399.616" fy="1300.973" gradientTransform="matrix(-0.4046 0.393 -0.2116 -0.2179 1049.8062 252.3041)" gradientUnits="userSpaceOnUse">
			<stop  offset="0" style="stop-color:#A6A8AB"/>
			<stop  offset="0.1546" style="stop-color:#C0C1C3"/>
			<stop  offset="0.3638" style="stop-color:#DBDCDD"/>
			<stop  offset="0.5748" style="stop-color:#EFEFF0"/>
			<stop  offset="0.7864" style="stop-color:#FBFBFB"/>
			<stop  offset="1" style="stop-color:#FFFFFF"/>
		</radialGradient>
		<path fill="url(#SVGID_53_)" d="M176.834,549.369c-5.063-5.213-1.322-17.057,8.354-26.451c9.678-9.4,21.624-12.792,26.687-7.58
			c5.063,5.213,1.32,17.057-8.354,26.453C193.846,551.188,181.895,554.581,176.834,549.369z"/>
		
			<radialGradient id="SVGID_54_" cx="1595.9551" cy="1305.5078" r="70.3594" fx="1595.6057" fy="1302.2959" gradientTransform="matrix(-0.2167 0.2105 -0.2116 -0.2179 831.7271 464.006)" gradientUnits="userSpaceOnUse">
			<stop  offset="0" style="stop-color:#A6A8AB"/>
			<stop  offset="0.2643" style="stop-color:#C1C2C4"/>
			<stop  offset="0.7531" style="stop-color:#EEEEEF"/>
			<stop  offset="1" style="stop-color:#FFFFFF"/>
		</radialGradient>
		<path fill="url(#SVGID_54_)" d="M194.393,530.289c-8.225-8.472-8.068-21.965,0.354-30.139c8.42-8.18,21.911-7.941,30.137,0.527
			c8.228,8.471,8.066,21.963-0.352,30.141C216.113,538.994,202.617,538.757,194.393,530.289z"/>
		<circle fill="#FFFFFF" cx="210.979" cy="513.477" r="21.342"/>
		<linearGradient id="SVGID_55_" gradientUnits="userSpaceOnUse" x1="192.4199" y1="525.2217" x2="228.8761" y2="503.0101">
			<stop  offset="0" style="stop-color:#E6E7E8"/>
			<stop  offset="1" style="stop-color:#FFFFFF"/>
		</linearGradient>
		<circle fill="url(#SVGID_55_)" cx="210.979" cy="513.912" r="21.342"/>
	</g>
	<g>
		<linearGradient id="SVGID_56_" gradientUnits="userSpaceOnUse" x1="196.293" y1="524.8398" x2="221.211" y2="499.9218">
			<stop  offset="0.1452" style="stop-color:#8CC63F"/>
			<stop  offset="1" style="stop-color:#A3E349"/>
		</linearGradient>
		<path fill="url(#SVGID_56_)" d="M214.189,511.225c0.376-0.281,0.564-0.719,0.564-1.313c0-0.594-0.188-1.032-0.564-1.313
			c-0.313-0.25-0.922-0.375-1.829-0.375h-3.754v3.425h3.801C213.221,511.647,213.814,511.506,214.189,511.225z"/>
		<linearGradient id="SVGID_57_" gradientUnits="userSpaceOnUse" x1="199.6597" y1="528.209" x2="224.5797" y2="503.289">
			<stop  offset="0.1452" style="stop-color:#8CC63F"/>
			<stop  offset="1" style="stop-color:#A3E349"/>
		</linearGradient>
		<path fill="url(#SVGID_57_)" d="M214.565,514.885c-0.407-0.313-1.095-0.469-2.064-0.469h-3.895v4.223h3.941
			c0.876,0,1.548-0.172,2.018-0.516c0.438-0.313,0.657-0.846,0.657-1.596C215.223,515.776,215.003,515.229,214.565,514.885z"/>
		<linearGradient id="SVGID_58_" gradientUnits="userSpaceOnUse" x1="198.1714" y1="526.7217" x2="223.0915" y2="501.8015">
			<stop  offset="0.1452" style="stop-color:#8CC63F"/>
			<stop  offset="1" style="stop-color:#A3E349"/>
		</linearGradient>
		<path fill="url(#SVGID_58_)" d="M210.979,495.684c-10.067,0-18.229,8.161-18.229,18.229c0,10.068,8.162,18.23,18.229,18.23
			c10.068,0,18.229-8.162,18.229-18.23C229.208,503.845,221.047,495.684,210.979,495.684z M217.146,520.281
			c-1.033,0.844-2.487,1.267-4.363,1.267h-7.367v-14.452c0-0.469,0.164-0.867,0.492-1.196c0.328-0.328,0.728-0.493,1.197-0.493
			h5.912c1.657,0,2.924,0.346,3.801,1.033c0.875,0.75,1.313,1.768,1.313,3.05c0,0.813-0.172,1.501-0.516,2.063
			c-0.344,0.533-0.829,0.955-1.455,1.268c0.813,0.345,1.439,0.829,1.877,1.455c0.406,0.594,0.61,1.377,0.61,2.346
			C218.647,518.186,218.146,519.406,217.146,520.281z"/>
	</g>
</g>
<g>
	<g>
		
			<radialGradient id="SVGID_59_" cx="1254.5586" cy="957.0527" r="43.3076" fx="1220.25" fy="957.0532" gradientTransform="matrix(-0.4046 0.393 -0.2116 -0.2179 1049.8062 252.3041)" gradientUnits="userSpaceOnUse">
			<stop  offset="0" style="stop-color:#A6A8AB"/>
			<stop  offset="0.1546" style="stop-color:#C0C1C3"/>
			<stop  offset="0.3638" style="stop-color:#DBDCDD"/>
			<stop  offset="0.5748" style="stop-color:#EFEFF0"/>
			<stop  offset="0.7864" style="stop-color:#FBFBFB"/>
			<stop  offset="1" style="stop-color:#FFFFFF"/>
		</radialGradient>
		<path fill="url(#SVGID_59_)" d="M322.18,553.819c-5.063-5.216-1.322-17.057,8.354-26.453c9.678-9.398,21.625-12.791,26.686-7.58
			c5.064,5.215,1.322,17.059-8.354,26.455C339.189,555.639,327.24,559.03,322.18,553.819z"/>
		
			<radialGradient id="SVGID_60_" cx="1257.9648" cy="1015.8242" r="43.3071" fx="1223.6566" fy="1015.8246" gradientTransform="matrix(-0.4046 0.393 -0.2116 -0.2179 1049.8062 252.3041)" gradientUnits="userSpaceOnUse">
			<stop  offset="0" style="stop-color:#A6A8AB"/>
			<stop  offset="0.1546" style="stop-color:#C0C1C3"/>
			<stop  offset="0.3638" style="stop-color:#DBDCDD"/>
			<stop  offset="0.5748" style="stop-color:#EFEFF0"/>
			<stop  offset="0.7864" style="stop-color:#FBFBFB"/>
			<stop  offset="1" style="stop-color:#FFFFFF"/>
		</radialGradient>
		<path fill="url(#SVGID_60_)" d="M308.363,542.351c-5.061-5.213-1.321-17.057,8.355-26.451c9.679-9.401,21.625-12.792,26.686-7.582
			c5.064,5.215,1.322,17.059-8.354,26.455C325.375,544.168,313.426,547.56,308.363,542.351z"/>
		
			<radialGradient id="SVGID_61_" cx="1269.457" cy="983.9219" r="43.3091" fx="1235.1472" fy="983.9223" gradientTransform="matrix(-0.4046 0.393 -0.2116 -0.2179 1049.8062 252.3041)" gradientUnits="userSpaceOnUse">
			<stop  offset="0" style="stop-color:#A6A8AB"/>
			<stop  offset="0.1546" style="stop-color:#C0C1C3"/>
			<stop  offset="0.3638" style="stop-color:#DBDCDD"/>
			<stop  offset="0.5748" style="stop-color:#EFEFF0"/>
			<stop  offset="0.7864" style="stop-color:#FBFBFB"/>
			<stop  offset="1" style="stop-color:#FFFFFF"/>
		</radialGradient>
		<path fill="url(#SVGID_61_)" d="M310.465,553.819c-5.063-5.215-1.322-17.057,8.354-26.453c9.679-9.399,21.624-12.791,26.687-7.58
			c5.063,5.215,1.32,17.059-8.354,26.455C327.477,555.638,315.526,559.03,310.465,553.819z"/>
		
			<radialGradient id="SVGID_62_" cx="1288.8877" cy="988.4492" r="70.3608" fx="1288.5383" fy="985.2372" gradientTransform="matrix(-0.2167 0.2105 -0.2116 -0.2179 831.7271 464.006)" gradientUnits="userSpaceOnUse">
			<stop  offset="0" style="stop-color:#A6A8AB"/>
			<stop  offset="0.2643" style="stop-color:#C1C2C4"/>
			<stop  offset="0.7531" style="stop-color:#EEEEEF"/>
			<stop  offset="1" style="stop-color:#FFFFFF"/>
		</radialGradient>
		<path fill="url(#SVGID_62_)" d="M328.023,534.737c-8.225-8.471-8.068-21.965,0.354-30.138c8.42-8.18,21.91-7.941,30.137,0.527
			c8.229,8.472,8.066,21.964-0.352,30.141S336.248,543.206,328.023,534.737z"/>
		
			<radialGradient id="SVGID_63_" cx="1243.4033" cy="957.3555" r="43.3071" fx="1209.0951" fy="957.3559" gradientTransform="matrix(-0.4046 0.393 -0.2116 -0.2179 1049.8062 252.3041)" gradientUnits="userSpaceOnUse">
			<stop  offset="0" style="stop-color:#A6A8AB"/>
			<stop  offset="0.1546" style="stop-color:#C0C1C3"/>
			<stop  offset="0.3638" style="stop-color:#DBDCDD"/>
			<stop  offset="0.5748" style="stop-color:#EFEFF0"/>
			<stop  offset="0.7864" style="stop-color:#FBFBFB"/>
			<stop  offset="1" style="stop-color:#FFFFFF"/>
		</radialGradient>
		<path fill="url(#SVGID_63_)" d="M326.629,549.37c-5.063-5.217-1.322-17.058,8.354-26.453c9.678-9.398,21.625-12.791,26.688-7.58
			c5.063,5.213,1.32,17.058-8.355,26.454C343.639,551.188,331.691,554.581,326.629,549.37z"/>
		
			<radialGradient id="SVGID_64_" cx="1246.8086" cy="1016.1289" r="43.3076" fx="1212.5" fy="1016.1293" gradientTransform="matrix(-0.4046 0.393 -0.2116 -0.2179 1049.8062 252.3041)" gradientUnits="userSpaceOnUse">
			<stop  offset="0" style="stop-color:#A6A8AB"/>
			<stop  offset="0.1546" style="stop-color:#C0C1C3"/>
			<stop  offset="0.3638" style="stop-color:#DBDCDD"/>
			<stop  offset="0.5748" style="stop-color:#EFEFF0"/>
			<stop  offset="0.7864" style="stop-color:#FBFBFB"/>
			<stop  offset="1" style="stop-color:#FFFFFF"/>
		</radialGradient>
		<path fill="url(#SVGID_64_)" d="M312.813,537.9c-5.061-5.212-1.32-17.058,8.355-26.452c9.68-9.399,21.625-12.791,26.688-7.58
			c5.063,5.214,1.32,17.057-8.355,26.454C329.824,539.718,317.875,543.109,312.813,537.9z"/>
		
			<radialGradient id="SVGID_65_" cx="1258.3027" cy="984.2246" r="43.3081" fx="1223.9938" fy="984.225" gradientTransform="matrix(-0.4046 0.393 -0.2116 -0.2179 1049.8062 252.3041)" gradientUnits="userSpaceOnUse">
			<stop  offset="0" style="stop-color:#A6A8AB"/>
			<stop  offset="0.1546" style="stop-color:#C0C1C3"/>
			<stop  offset="0.3638" style="stop-color:#DBDCDD"/>
			<stop  offset="0.5748" style="stop-color:#EFEFF0"/>
			<stop  offset="0.7864" style="stop-color:#FBFBFB"/>
			<stop  offset="1" style="stop-color:#FFFFFF"/>
		</radialGradient>
		<path fill="url(#SVGID_65_)" d="M314.914,549.37c-5.063-5.215-1.322-17.058,8.355-26.453c9.678-9.4,21.623-12.791,26.686-7.58
			c5.064,5.215,1.32,17.058-8.354,26.454C331.926,551.188,319.976,554.581,314.914,549.37z"/>
		
			<radialGradient id="SVGID_66_" cx="1268.0605" cy="988.752" r="70.3604" fx="1267.7112" fy="985.54" gradientTransform="matrix(-0.2167 0.2105 -0.2116 -0.2179 831.7271 464.006)" gradientUnits="userSpaceOnUse">
			<stop  offset="0" style="stop-color:#A6A8AB"/>
			<stop  offset="0.2643" style="stop-color:#C1C2C4"/>
			<stop  offset="0.7531" style="stop-color:#EEEEEF"/>
			<stop  offset="1" style="stop-color:#FFFFFF"/>
		</radialGradient>
		<path fill="url(#SVGID_66_)" d="M332.473,530.288c-8.225-8.471-8.067-21.965,0.354-30.139c8.42-8.179,21.912-7.941,30.137,0.527
			c8.229,8.471,8.066,21.964-0.352,30.141S340.697,538.757,332.473,530.288z"/>
		<circle fill="#FFFFFF" cx="349.059" cy="513.478" r="21.342"/>
		<linearGradient id="SVGID_67_" gradientUnits="userSpaceOnUse" x1="330.5" y1="525.2207" x2="366.956" y2="503.0092">
			<stop  offset="0" style="stop-color:#E6E7E8"/>
			<stop  offset="1" style="stop-color:#FFFFFF"/>
		</linearGradient>
		<circle fill="url(#SVGID_67_)" cx="349.059" cy="513.912" r="21.342"/>
	</g>
	<linearGradient id="SVGID_68_" gradientUnits="userSpaceOnUse" x1="330.8301" y1="513.9121" x2="367.2891" y2="513.9121">
		<stop  offset="0.129" style="stop-color:#29ABE2"/>
		<stop  offset="0.914" style="stop-color:#61D0FF"/>
	</linearGradient>
	<path fill="url(#SVGID_68_)" d="M349.059,495.683c-10.066,0-18.229,8.162-18.229,18.229s8.162,18.229,18.229,18.229
		c10.068,0,18.23-8.162,18.23-18.229S359.127,495.683,349.059,495.683z M346.121,517.87c0.721,0.971,1.799,1.455,3.238,1.455
		c1.002,0,1.83-0.25,2.486-0.751c0.594-0.47,1.018-1.22,1.268-2.253h3.238c-0.158,1.878-0.861,3.348-2.111,4.411
		c-1.283,1.032-2.973,1.549-5.068,1.549c-2.439,0-4.301-0.735-5.584-2.206c-1.283-1.407-1.924-3.486-1.924-6.24
		c0-2.814,0.658-4.927,1.971-6.334c1.346-1.471,3.285-2.205,5.818-2.205c2.064,0,3.707,0.516,4.928,1.548
		c1.156,1.001,1.813,2.409,1.971,4.224h-2.018c-0.752,0-1.283-0.329-1.596-0.985c-0.219-0.407-0.486-0.767-0.797-1.079
		c-0.627-0.47-1.455-0.704-2.488-0.704c-1.439,0-2.549,0.469-3.332,1.407c-0.75,0.938-1.125,2.315-1.125,4.129
		C344.996,515.587,345.371,516.933,346.121,517.87z"/>
</g>
<g>
	<g>
		
			<radialGradient id="SVGID_69_" cx="1078.9375" cy="640.3066" r="43.3071" fx="1044.6293" fy="640.3071" gradientTransform="matrix(-0.4046 0.393 -0.2116 -0.2179 1049.8062 252.3041)" gradientUnits="userSpaceOnUse">
			<stop  offset="0" style="stop-color:#A6A8AB"/>
			<stop  offset="0.1546" style="stop-color:#C0C1C3"/>
			<stop  offset="0.3638" style="stop-color:#DBDCDD"/>
			<stop  offset="0.5748" style="stop-color:#EFEFF0"/>
			<stop  offset="0.7864" style="stop-color:#FBFBFB"/>
			<stop  offset="1" style="stop-color:#FFFFFF"/>
		</radialGradient>
		<path fill="url(#SVGID_69_)" d="M460.26,553.819c-5.063-5.216-1.322-17.056,8.354-26.452c9.678-9.398,21.625-12.791,26.686-7.58
			c5.064,5.214,1.322,17.058-8.354,26.454C477.27,555.639,465.32,559.031,460.26,553.819z"/>
		
			<radialGradient id="SVGID_70_" cx="1082.3438" cy="699.0762" r="43.3081" fx="1048.0348" fy="699.0766" gradientTransform="matrix(-0.4046 0.393 -0.2116 -0.2179 1049.8062 252.3041)" gradientUnits="userSpaceOnUse">
			<stop  offset="0" style="stop-color:#A6A8AB"/>
			<stop  offset="0.1546" style="stop-color:#C0C1C3"/>
			<stop  offset="0.3638" style="stop-color:#DBDCDD"/>
			<stop  offset="0.5748" style="stop-color:#EFEFF0"/>
			<stop  offset="0.7864" style="stop-color:#FBFBFB"/>
			<stop  offset="1" style="stop-color:#FFFFFF"/>
		</radialGradient>
		<path fill="url(#SVGID_70_)" d="M446.443,542.351c-5.061-5.213-1.322-17.057,8.355-26.451c9.678-9.401,21.625-12.792,26.686-7.581
			c5.064,5.214,1.322,17.058-8.354,26.455C463.455,544.168,451.506,547.56,446.443,542.351z"/>
		
			<radialGradient id="SVGID_71_" cx="1093.8359" cy="667.1777" r="43.3081" fx="1059.527" fy="667.1782" gradientTransform="matrix(-0.4046 0.393 -0.2116 -0.2179 1049.8062 252.3041)" gradientUnits="userSpaceOnUse">
			<stop  offset="0" style="stop-color:#A6A8AB"/>
			<stop  offset="0.1546" style="stop-color:#C0C1C3"/>
			<stop  offset="0.3638" style="stop-color:#DBDCDD"/>
			<stop  offset="0.5748" style="stop-color:#EFEFF0"/>
			<stop  offset="0.7864" style="stop-color:#FBFBFB"/>
			<stop  offset="1" style="stop-color:#FFFFFF"/>
		</radialGradient>
		<path fill="url(#SVGID_71_)" d="M448.545,553.819c-5.063-5.214-1.322-17.056,8.354-26.452c9.678-9.4,21.625-12.791,26.688-7.58
			c5.063,5.214,1.32,17.058-8.354,26.454C465.557,555.639,453.605,559.031,448.545,553.819z"/>
		
			<radialGradient id="SVGID_72_" cx="960.9961" cy="671.6934" r="70.3604" fx="960.6467" fy="668.4814" gradientTransform="matrix(-0.2167 0.2105 -0.2116 -0.2179 831.7271 464.006)" gradientUnits="userSpaceOnUse">
			<stop  offset="0" style="stop-color:#A6A8AB"/>
			<stop  offset="0.2643" style="stop-color:#C1C2C4"/>
			<stop  offset="0.7531" style="stop-color:#EEEEEF"/>
			<stop  offset="1" style="stop-color:#FFFFFF"/>
		</radialGradient>
		<path fill="url(#SVGID_72_)" d="M466.104,534.738c-8.225-8.471-8.068-21.965,0.354-30.139c8.42-8.18,21.91-7.941,30.137,0.527
			c8.227,8.472,8.066,21.964-0.352,30.141S474.328,543.207,466.104,534.738z"/>
		
			<radialGradient id="SVGID_73_" cx="1067.7832" cy="640.6055" r="43.3066" fx="1033.4753" fy="640.6059" gradientTransform="matrix(-0.4046 0.393 -0.2116 -0.2179 1049.8062 252.3041)" gradientUnits="userSpaceOnUse">
			<stop  offset="0" style="stop-color:#A6A8AB"/>
			<stop  offset="0.1546" style="stop-color:#C0C1C3"/>
			<stop  offset="0.3638" style="stop-color:#DBDCDD"/>
			<stop  offset="0.5748" style="stop-color:#EFEFF0"/>
			<stop  offset="0.7864" style="stop-color:#FBFBFB"/>
			<stop  offset="1" style="stop-color:#FFFFFF"/>
		</radialGradient>
		<path fill="url(#SVGID_73_)" d="M464.709,549.37c-5.063-5.216-1.322-17.058,8.354-26.452c9.678-9.398,21.625-12.791,26.688-7.58
			c5.063,5.213,1.32,17.057-8.355,26.453C481.719,551.189,469.77,554.582,464.709,549.37z"/>
		
			<radialGradient id="SVGID_74_" cx="1071.1875" cy="699.3809" r="43.3062" fx="1036.88" fy="699.3813" gradientTransform="matrix(-0.4046 0.393 -0.2116 -0.2179 1049.8062 252.3041)" gradientUnits="userSpaceOnUse">
			<stop  offset="0" style="stop-color:#A6A8AB"/>
			<stop  offset="0.1546" style="stop-color:#C0C1C3"/>
			<stop  offset="0.3638" style="stop-color:#DBDCDD"/>
			<stop  offset="0.5748" style="stop-color:#EFEFF0"/>
			<stop  offset="0.7864" style="stop-color:#FBFBFB"/>
			<stop  offset="1" style="stop-color:#FFFFFF"/>
		</radialGradient>
		<path fill="url(#SVGID_74_)" d="M450.893,537.9c-5.061-5.212-1.32-17.057,8.355-26.451c9.68-9.4,21.625-12.791,26.688-7.58
			c5.063,5.213,1.32,17.057-8.355,26.453S455.955,543.109,450.893,537.9z"/>
		
			<radialGradient id="SVGID_75_" cx="1082.6826" cy="667.4766" r="43.3066" fx="1048.3748" fy="667.477" gradientTransform="matrix(-0.4046 0.393 -0.2116 -0.2179 1049.8062 252.3041)" gradientUnits="userSpaceOnUse">
			<stop  offset="0" style="stop-color:#A6A8AB"/>
			<stop  offset="0.1546" style="stop-color:#C0C1C3"/>
			<stop  offset="0.3638" style="stop-color:#DBDCDD"/>
			<stop  offset="0.5748" style="stop-color:#EFEFF0"/>
			<stop  offset="0.7864" style="stop-color:#FBFBFB"/>
			<stop  offset="1" style="stop-color:#FFFFFF"/>
		</radialGradient>
		<path fill="url(#SVGID_75_)" d="M452.994,549.37c-5.063-5.214-1.322-17.058,8.355-26.452c9.678-9.4,21.623-12.791,26.686-7.58
			c5.064,5.214,1.32,17.057-8.354,26.453C470.006,551.188,458.055,554.582,452.994,549.37z"/>
		
			<radialGradient id="SVGID_76_" cx="940.1709" cy="671.9922" r="70.3589" fx="939.8215" fy="668.7803" gradientTransform="matrix(-0.2167 0.2105 -0.2116 -0.2179 831.7271 464.006)" gradientUnits="userSpaceOnUse">
			<stop  offset="0" style="stop-color:#A6A8AB"/>
			<stop  offset="0.2643" style="stop-color:#C1C2C4"/>
			<stop  offset="0.7531" style="stop-color:#EEEEEF"/>
			<stop  offset="1" style="stop-color:#FFFFFF"/>
		</radialGradient>
		<path fill="url(#SVGID_76_)" d="M470.553,530.289c-8.225-8.471-8.068-21.965,0.354-30.139c8.42-8.18,21.912-7.941,30.137,0.527
			c8.229,8.471,8.066,21.963-0.352,30.141C492.273,538.994,478.777,538.757,470.553,530.289z"/>
		<circle fill="#FFFFFF" cx="487.139" cy="513.478" r="21.342"/>
		<linearGradient id="SVGID_77_" gradientUnits="userSpaceOnUse" x1="468.5801" y1="525.2207" x2="505.0363" y2="503.0091">
			<stop  offset="0" style="stop-color:#E6E7E8"/>
			<stop  offset="1" style="stop-color:#FFFFFF"/>
		</linearGradient>
		<circle fill="url(#SVGID_77_)" cx="487.139" cy="513.912" r="21.342"/>
	</g>
	<g>
		<linearGradient id="SVGID_78_" gradientUnits="userSpaceOnUse" x1="473.6846" y1="527.0576" x2="498.8656" y2="501.8766">
			<stop  offset="0.0806" style="stop-color:#662D91"/>
			<stop  offset="1" style="stop-color:#7F43AD"/>
		</linearGradient>
		<path fill="url(#SVGID_78_)" d="M487.986,508.223h-3.096v10.416h2.674c1.533,0,2.658-0.406,3.379-1.22
			c0.688-0.751,1.031-2.064,1.031-3.941c0-1.813-0.328-3.144-0.984-3.988C490.363,508.645,489.363,508.223,487.986,508.223z"/>
		<linearGradient id="SVGID_79_" gradientUnits="userSpaceOnUse" x1="473.8398" y1="527.2109" x2="499.0201" y2="502.0306">
			<stop  offset="0.0806" style="stop-color:#662D91"/>
			<stop  offset="1" style="stop-color:#7F43AD"/>
		</linearGradient>
		<path fill="url(#SVGID_79_)" d="M487.139,495.684c-10.066,0-18.229,8.162-18.229,18.229c0,10.068,8.162,18.23,18.229,18.23
			c10.068,0,18.23-8.162,18.23-18.23C505.369,503.846,497.207,495.684,487.139,495.684z M494.697,517.372
			c-0.502,1.188-1.158,2.097-1.971,2.722c-0.689,0.531-1.424,0.908-2.205,1.126c-0.752,0.22-1.893,0.328-3.426,0.328h-5.443v-14.452
			c0-0.469,0.164-0.867,0.492-1.195c0.33-0.329,0.729-0.494,1.197-0.494h4.645c2.471,0,4.318,0.658,5.537,1.971
			c1.221,1.377,1.83,3.411,1.83,6.101C495.354,514.916,495.135,516.215,494.697,517.372z"/>
	</g>
</g>
<g>
	
		<radialGradient id="SVGID_80_" cx="1080.6465" cy="1977.3594" r="198.8149" fx="923.1439" fy="1977.3613" gradientTransform="matrix(-0.4046 0.393 -0.2116 -0.2179 1049.8062 252.3041)" gradientUnits="userSpaceOnUse">
		<stop  offset="0" style="stop-color:#A6A8AB"/>
		<stop  offset="0.1546" style="stop-color:#C0C1C3"/>
		<stop  offset="0.3638" style="stop-color:#DBDCDD"/>
		<stop  offset="0.5748" style="stop-color:#EFEFF0"/>
		<stop  offset="0.7864" style="stop-color:#FBFBFB"/>
		<stop  offset="1" style="stop-color:#FFFFFF"/>
	</radialGradient>
	<path fill="url(#SVGID_80_)" d="M113.732,324.247c-23.241-23.944-6.068-78.306,38.354-121.438
		c44.43-43.147,99.273-58.723,122.513-34.799c23.247,23.933,6.063,78.307-38.353,121.446
		C191.825,332.601,136.971,348.171,113.732,324.247z"/>
	
		<radialGradient id="SVGID_81_" cx="1096.2813" cy="2247.1875" r="198.813" fx="938.7802" fy="2247.1895" gradientTransform="matrix(-0.4046 0.393 -0.2116 -0.2179 1049.8062 252.3041)" gradientUnits="userSpaceOnUse">
		<stop  offset="0" style="stop-color:#A6A8AB"/>
		<stop  offset="0.1546" style="stop-color:#C0C1C3"/>
		<stop  offset="0.3638" style="stop-color:#DBDCDD"/>
		<stop  offset="0.5748" style="stop-color:#EFEFF0"/>
		<stop  offset="0.7864" style="stop-color:#FBFBFB"/>
		<stop  offset="1" style="stop-color:#FFFFFF"/>
	</radialGradient>
	<path fill="url(#SVGID_81_)" d="M50.308,271.593c-23.232-23.93-6.068-78.304,38.356-121.434
		c44.436-43.154,99.278-58.723,122.515-34.799c23.245,23.934,6.065,78.306-38.354,121.445
		C128.405,279.94,73.545,295.51,50.308,271.593z"/>
	
		<radialGradient id="SVGID_82_" cx="1149.0449" cy="2100.7207" r="198.8174" fx="991.5404" fy="2100.7227" gradientTransform="matrix(-0.4046 0.393 -0.2116 -0.2179 1049.8062 252.3041)" gradientUnits="userSpaceOnUse">
		<stop  offset="0" style="stop-color:#A6A8AB"/>
		<stop  offset="0.1546" style="stop-color:#C0C1C3"/>
		<stop  offset="0.3638" style="stop-color:#DBDCDD"/>
		<stop  offset="0.5748" style="stop-color:#EFEFF0"/>
		<stop  offset="0.7864" style="stop-color:#FBFBFB"/>
		<stop  offset="1" style="stop-color:#FFFFFF"/>
	</radialGradient>
	<path fill="url(#SVGID_82_)" d="M59.953,324.247c-23.238-23.938-6.067-78.306,38.356-121.438
		c44.43-43.153,99.271-58.723,122.514-34.798c23.245,23.936,6.06,78.306-38.353,121.445
		C138.051,332.594,83.19,348.171,59.953,324.247z"/>
	
		<radialGradient id="SVGID_83_" cx="794.0527" cy="2122.3984" r="323.0098" fx="792.4489" fy="2107.6531" gradientTransform="matrix(-0.2167 0.2105 -0.2116 -0.2179 831.7271 464.006)" gradientUnits="userSpaceOnUse">
		<stop  offset="0" style="stop-color:#A6A8AB"/>
		<stop  offset="0.2643" style="stop-color:#C1C2C4"/>
		<stop  offset="0.7531" style="stop-color:#EEEEEF"/>
		<stop  offset="1" style="stop-color:#FFFFFF"/>
	</radialGradient>
	<path fill="url(#SVGID_83_)" d="M140.565,236.648c-37.762-38.889-37.041-100.836,1.62-138.359
		c38.656-37.551,100.591-36.458,138.354,2.42c37.771,38.889,37.03,100.832-1.613,138.372
		C240.278,276.615,178.324,275.524,140.565,236.648z"/>
	
		<radialGradient id="SVGID_84_" cx="1029.4336" cy="1978.7441" r="198.8164" fx="871.9298" fy="1978.7461" gradientTransform="matrix(-0.4046 0.393 -0.2116 -0.2179 1049.8062 252.3041)" gradientUnits="userSpaceOnUse">
		<stop  offset="0" style="stop-color:#A6A8AB"/>
		<stop  offset="0.1546" style="stop-color:#C0C1C3"/>
		<stop  offset="0.3638" style="stop-color:#DBDCDD"/>
		<stop  offset="0.5748" style="stop-color:#EFEFF0"/>
		<stop  offset="0.7864" style="stop-color:#FBFBFB"/>
		<stop  offset="1" style="stop-color:#FFFFFF"/>
	</radialGradient>
	<path fill="url(#SVGID_84_)" d="M134.16,303.819c-23.24-23.944-6.068-78.305,38.354-121.438
		c44.43-43.147,99.274-58.723,122.513-34.799c23.246,23.934,6.063,78.308-38.352,121.446
		C212.252,312.173,157.399,327.743,134.16,303.819z"/>
	
		<radialGradient id="SVGID_85_" cx="1045.0693" cy="2248.5703" r="198.813" fx="887.5683" fy="2248.5723" gradientTransform="matrix(-0.4046 0.393 -0.2116 -0.2179 1049.8062 252.3041)" gradientUnits="userSpaceOnUse">
		<stop  offset="0" style="stop-color:#A6A8AB"/>
		<stop  offset="0.1546" style="stop-color:#C0C1C3"/>
		<stop  offset="0.3638" style="stop-color:#DBDCDD"/>
		<stop  offset="0.5748" style="stop-color:#EFEFF0"/>
		<stop  offset="0.7864" style="stop-color:#FBFBFB"/>
		<stop  offset="1" style="stop-color:#FFFFFF"/>
	</radialGradient>
	<path fill="url(#SVGID_85_)" d="M70.736,251.166c-23.232-23.93-6.068-78.304,38.355-121.433
		c44.436-43.155,99.277-58.723,122.515-34.8c23.245,23.934,6.065,78.305-38.355,121.444
		C148.833,259.513,93.973,275.082,70.736,251.166z"/>
	
		<radialGradient id="SVGID_86_" cx="1097.834" cy="2102.1035" r="198.8169" fx="940.3298" fy="2102.1055" gradientTransform="matrix(-0.4046 0.393 -0.2116 -0.2179 1049.8062 252.3041)" gradientUnits="userSpaceOnUse">
		<stop  offset="0" style="stop-color:#A6A8AB"/>
		<stop  offset="0.1546" style="stop-color:#C0C1C3"/>
		<stop  offset="0.3638" style="stop-color:#DBDCDD"/>
		<stop  offset="0.5748" style="stop-color:#EFEFF0"/>
		<stop  offset="0.7864" style="stop-color:#FBFBFB"/>
		<stop  offset="1" style="stop-color:#FFFFFF"/>
	</radialGradient>
	<path fill="url(#SVGID_86_)" d="M80.38,303.819c-23.237-23.938-6.067-78.305,38.357-121.438
		c44.429-43.153,99.272-58.723,122.514-34.798c23.245,23.935,6.06,78.307-38.353,121.445
		C158.479,312.168,103.618,327.743,80.38,303.819z"/>
	
		<radialGradient id="SVGID_87_" cx="698.4375" cy="2123.7813" r="323.0107" fx="696.8336" fy="2109.0359" gradientTransform="matrix(-0.2167 0.2105 -0.2116 -0.2179 831.7271 464.006)" gradientUnits="userSpaceOnUse">
		<stop  offset="0" style="stop-color:#A6A8AB"/>
		<stop  offset="0.2643" style="stop-color:#C1C2C4"/>
		<stop  offset="0.7531" style="stop-color:#EEEEEF"/>
		<stop  offset="1" style="stop-color:#FFFFFF"/>
	</radialGradient>
	<path fill="url(#SVGID_87_)" d="M160.992,216.221c-37.761-38.89-37.04-100.836,1.621-138.361
		c38.655-37.55,100.591-36.457,138.355,2.42c37.771,38.89,37.029,100.832-1.614,138.372
		C260.705,256.189,198.751,255.098,160.992,216.221z"/>
	<path fill="#FFFFFF" d="M335.111,139.043c0,54.11-43.865,97.974-97.979,97.974c-54.106,0-97.975-43.864-97.975-97.974
		c0-54.107,43.868-97.975,97.975-97.975C291.246,41.068,335.111,84.937,335.111,139.043z"/>
	<linearGradient id="SVGID_88_" gradientUnits="userSpaceOnUse" x1="151.9307" y1="192.9561" x2="319.2952" y2="90.9863">
		<stop  offset="0" style="stop-color:#E6E7E8"/>
		<stop  offset="1" style="stop-color:#FFFFFF"/>
	</linearGradient>
	<path fill="url(#SVGID_88_)" d="M335.111,141.042c0,54.11-43.865,97.979-97.979,97.979c-54.106,0-97.975-43.869-97.975-97.979
		c0-54.11,43.868-97.976,97.975-97.976C291.246,43.066,335.111,86.931,335.111,141.042z"/>
	<path opacity="0.3" fill="#662D91" d="M148.601,48.655c-0.002,0-0.002,0.002-0.002,0.002c0.02-0.021,0.043-0.039,0.064-0.06
		C148.643,48.618,148.622,48.637,148.601,48.655z"/>
	<linearGradient id="SVGID_89_" gradientUnits="userSpaceOnUse" x1="257.4136" y1="215.543" x2="257.4136" y2="68.3947">
		<stop  offset="0.1452" style="stop-color:#F15A24"/>
		<stop  offset="1" style="stop-color:#F18C68"/>
	</linearGradient>
	<path fill="url(#SVGID_89_)" d="M307.931,121.748c-11.165-39.054-51.882-61.667-90.938-50.501c-4.552,1.302-8.87,3.02-12.948,5.074
		l21.377,42.143c3.506-1.823,7.487-2.859,11.712-2.859c14.05,0,25.438,11.389,25.438,25.438c0,2.468-0.358,4.851-1.014,7.107
		l46.996,11.756C311.621,147.757,311.623,134.662,307.931,121.748z"/>
	<g>
		<path fill="#666666" d="M197.426,160.009c-0.298,1.229-0.678,2.357-1.135,3.389c-0.456,1.033-0.972,1.996-1.546,2.898
			c-0.576,0.901-1.162,1.795-1.762,2.682c-0.628,0.94-1.249,1.899-1.861,2.879c-0.611,0.979-1.164,2.05-1.644,3.211
			c-0.486,1.162-0.878,2.449-1.177,3.856c-0.3,1.411-0.437,2.874-0.411,4.387h-1.566c-0.025-1.644,0.119-3.218,0.431-4.718
			c0.313-1.501,0.723-2.866,1.233-4.095c0.509-1.227,1.084-2.35,1.725-3.368c0.637-1.018,1.284-2.024,1.937-3.014
			c0.494-0.757,0.992-1.523,1.488-2.292c0.495-0.77,0.954-1.58,1.371-2.428c0.418-0.848,0.779-1.763,1.077-2.741
			c0.301-0.98,0.53-2.043,0.685-3.192h-11.906v-1.566h13.631C197.917,157.411,197.729,158.782,197.426,160.009z"/>
		<path fill="#666666" d="M217.576,175.284c0,1.174-0.208,2.265-0.625,3.271c-0.417,1.005-0.995,1.874-1.725,2.604
			c-0.73,0.731-1.583,1.307-2.564,1.725c-0.98,0.417-2.016,0.626-3.115,0.626c-1.097,0-2.132-0.208-3.11-0.626
			c-0.983-0.417-1.836-0.993-2.567-1.725c-0.732-0.73-1.307-1.598-1.724-2.604c-0.417-1.006-0.628-2.096-0.628-3.271
			c0-1.514,0.437-2.891,1.313-4.132c0.874-1.24,2.018-2.174,3.427-2.8c-0.991-0.601-1.801-1.39-2.43-2.37
			c-0.623-0.979-0.94-2.056-0.94-3.23c0-1.018,0.179-1.958,0.529-2.82c0.354-0.862,0.829-1.605,1.432-2.232
			c0.6-0.627,1.303-1.116,2.113-1.468c0.811-0.353,1.674-0.529,2.585-0.529c0.914,0,1.775,0.177,2.586,0.529
			c0.809,0.352,1.512,0.841,2.116,1.468c0.6,0.627,1.077,1.37,1.432,2.232c0.35,0.862,0.525,1.802,0.525,2.82
			c0,1.175-0.313,2.252-0.94,3.23c-0.625,0.98-1.446,1.769-2.467,2.37c1.412,0.626,2.559,1.56,3.448,2.8
			C217.133,172.394,217.576,173.771,217.576,175.284z M209.547,169.214c-0.886,0-1.72,0.163-2.504,0.489
			c-0.785,0.327-1.47,0.77-2.057,1.332c-0.586,0.562-1.05,1.207-1.39,1.938c-0.34,0.731-0.509,1.501-0.509,2.311
			c0,0.966,0.169,1.86,0.509,2.682c0.339,0.822,0.804,1.528,1.39,2.115c0.587,0.588,1.272,1.045,2.057,1.373
			c0.784,0.327,1.618,0.489,2.504,0.489c0.889,0,1.725-0.162,2.509-0.489c0.783-0.327,1.47-0.784,2.056-1.373
			c0.586-0.587,1.052-1.293,1.39-2.115c0.341-0.822,0.509-1.716,0.509-2.682c0-0.784-0.162-1.533-0.489-2.252
			c-0.326-0.718-0.776-1.351-1.353-1.9c-0.573-0.548-1.253-0.999-2.036-1.352C211.352,169.429,210.488,169.24,209.547,169.214z
			 M209.547,167.648c0.732,0,1.405-0.137,2.018-0.412c0.615-0.273,1.151-0.641,1.606-1.097c0.456-0.457,0.816-0.979,1.077-1.567
			c0.262-0.585,0.392-1.193,0.392-1.82c0-0.81-0.129-1.554-0.392-2.232c-0.261-0.679-0.628-1.261-1.097-1.744
			c-0.472-0.482-1.013-0.855-1.625-1.116c-0.616-0.261-1.272-0.392-1.98-0.392c-0.704,0-1.364,0.131-1.976,0.392
			c-0.616,0.261-1.157,0.634-1.625,1.116c-0.472,0.483-0.836,1.065-1.097,1.744c-0.261,0.678-0.392,1.422-0.392,2.232
			c0,0.652,0.131,1.272,0.392,1.86c0.261,0.588,0.625,1.111,1.097,1.567c0.468,0.457,1.01,0.815,1.625,1.077
			C208.183,167.516,208.843,167.648,209.547,167.648z"/>
		<path fill="#666666" d="M220.712,159.813c0-0.574,0.103-1.109,0.313-1.605c0.208-0.496,0.503-0.927,0.88-1.292
			c0.38-0.365,0.816-0.66,1.313-0.881c0.497-0.222,1.032-0.333,1.606-0.333c0.573,0,1.109,0.111,1.606,0.333
			c0.494,0.221,0.925,0.516,1.291,0.881c0.367,0.366,0.66,0.797,0.883,1.292c0.22,0.496,0.332,1.031,0.332,1.605
			c0,0.575-0.112,1.111-0.332,1.606c-0.223,0.497-0.516,0.934-0.883,1.312c-0.366,0.38-0.797,0.673-1.291,0.881
			c-0.497,0.211-1.033,0.314-1.606,0.314c-0.574,0-1.109-0.103-1.606-0.314c-0.497-0.208-0.934-0.501-1.313-0.881
			c-0.376-0.378-0.672-0.815-0.88-1.312C220.815,160.924,220.712,160.388,220.712,159.813z M222.278,159.813
			c0,0.707,0.248,1.307,0.745,1.803c0.494,0.495,1.097,0.745,1.802,0.745c0.705,0,1.303-0.25,1.802-0.745
			c0.496-0.496,0.745-1.096,0.745-1.803c0-0.704-0.249-1.305-0.745-1.8c-0.499-0.497-1.097-0.745-1.802-0.745
			c-0.705,0-1.308,0.248-1.802,0.745C222.525,158.508,222.278,159.109,222.278,159.813z M224.706,183.313l6.58-27.415h1.606
			l-6.578,27.415H224.706z M228.661,179.396c0-0.575,0.106-1.11,0.313-1.605c0.211-0.496,0.504-0.928,0.884-1.293
			c0.379-0.365,0.814-0.66,1.313-0.881c0.495-0.222,1.03-0.333,1.604-0.333c0.574,0,1.109,0.111,1.606,0.333
			c0.497,0.221,0.928,0.516,1.293,0.881c0.364,0.365,0.657,0.797,0.881,1.293s0.334,1.031,0.334,1.605
			c0,0.574-0.111,1.11-0.334,1.606s-0.517,0.934-0.881,1.312c-0.366,0.379-0.796,0.672-1.293,0.88
			c-0.497,0.209-1.032,0.314-1.606,0.314c-0.573,0-1.109-0.105-1.604-0.314c-0.498-0.208-0.934-0.501-1.313-0.88
			c-0.379-0.377-0.673-0.816-0.884-1.312C228.768,180.507,228.661,179.971,228.661,179.396z M230.23,179.396
			c0,0.706,0.246,1.307,0.742,1.802c0.498,0.496,1.097,0.744,1.801,0.744c0.708,0,1.307-0.249,1.805-0.744
			c0.494-0.495,0.743-1.096,0.743-1.802c0-0.706-0.249-1.306-0.743-1.801c-0.498-0.496-1.097-0.744-1.805-0.744
			c-0.704,0-1.303,0.249-1.801,0.744C230.476,178.09,230.23,178.691,230.23,179.396z"/>
	</g>
</g>
<g>
	
		<radialGradient id="SVGID_90_" cx="1068.6719" cy="1319.623" r="280.5708" fx="846.4017" fy="1319.6257" gradientTransform="matrix(-0.4046 0.393 -0.2116 -0.2179 1049.8062 252.3041)" gradientUnits="userSpaceOnUse">
		<stop  offset="0" style="stop-color:#A6A8AB"/>
		<stop  offset="0.1546" style="stop-color:#C0C1C3"/>
		<stop  offset="0.3638" style="stop-color:#DBDCDD"/>
		<stop  offset="0.5748" style="stop-color:#EFEFF0"/>
		<stop  offset="0.7864" style="stop-color:#FBFBFB"/>
		<stop  offset="1" style="stop-color:#FFFFFF"/>
	</radialGradient>
	<path fill="url(#SVGID_90_)" d="M224.678,494.984c-32.794-33.792-8.564-110.506,54.125-171.374
		c62.703-60.892,140.096-82.874,172.891-49.112c32.808,33.776,8.559,110.509-54.12,171.387
		C334.883,506.771,257.474,528.744,224.678,494.984z"/>
	
		<radialGradient id="SVGID_91_" cx="1090.7344" cy="1700.4082" r="280.5679" fx="868.4666" fy="1700.4109" gradientTransform="matrix(-0.4046 0.393 -0.2116 -0.2179 1049.8062 252.3041)" gradientUnits="userSpaceOnUse">
		<stop  offset="0" style="stop-color:#A6A8AB"/>
		<stop  offset="0.1546" style="stop-color:#C0C1C3"/>
		<stop  offset="0.3638" style="stop-color:#DBDCDD"/>
		<stop  offset="0.5748" style="stop-color:#EFEFF0"/>
		<stop  offset="0.7864" style="stop-color:#FBFBFB"/>
		<stop  offset="1" style="stop-color:#FFFFFF"/>
	</radialGradient>
	<path fill="url(#SVGID_91_)" d="M135.175,420.678c-32.789-33.771-8.564-110.504,54.126-171.367
		c62.707-60.9,140.102-82.872,172.896-49.109c32.801,33.775,8.557,110.506-54.128,171.383
		C245.386,432.455,167.97,454.426,135.175,420.678z"/>
	
		<radialGradient id="SVGID_92_" cx="1165.1973" cy="1493.707" r="280.5693" fx="942.9283" fy="1493.7097" gradientTransform="matrix(-0.4046 0.393 -0.2116 -0.2179 1049.8062 252.3041)" gradientUnits="userSpaceOnUse">
		<stop  offset="0" style="stop-color:#A6A8AB"/>
		<stop  offset="0.1546" style="stop-color:#C0C1C3"/>
		<stop  offset="0.3638" style="stop-color:#DBDCDD"/>
		<stop  offset="0.5748" style="stop-color:#EFEFF0"/>
		<stop  offset="0.7864" style="stop-color:#FBFBFB"/>
		<stop  offset="1" style="stop-color:#FFFFFF"/>
	</radialGradient>
	<path fill="url(#SVGID_92_)" d="M148.786,494.984c-32.795-33.78-8.566-110.506,54.128-171.374
		c62.696-60.899,140.091-82.874,172.891-49.107c32.805,33.776,8.553,110.504-54.123,171.382
		C258.996,506.765,181.579,528.744,148.786,494.984z"/>
	
		<radialGradient id="SVGID_93_" cx="682.2549" cy="1524.418" r="455.8345" fx="679.9915" fy="1503.6093" gradientTransform="matrix(-0.2167 0.2105 -0.2116 -0.2179 831.7271 464.006)" gradientUnits="userSpaceOnUse">
		<stop  offset="0" style="stop-color:#A6A8AB"/>
		<stop  offset="0.2643" style="stop-color:#C1C2C4"/>
		<stop  offset="0.7531" style="stop-color:#EEEEEF"/>
		<stop  offset="1" style="stop-color:#FFFFFF"/>
	</radialGradient>
	<path fill="url(#SVGID_93_)" d="M262.542,371.362c-53.287-54.881-52.27-142.3,2.286-195.252
		c54.554-52.992,141.957-51.451,195.25,3.415c53.302,54.879,52.259,142.295-2.278,195.269
		C403.262,427.769,315.831,426.226,262.542,371.362z"/>
	
		<radialGradient id="SVGID_94_" cx="1028.3662" cy="1325.4082" r="280.5693" fx="806.0972" fy="1325.4109" gradientTransform="matrix(-0.4046 0.393 -0.2116 -0.2179 1049.8062 252.3041)" gradientUnits="userSpaceOnUse">
		<stop  offset="0" style="stop-color:#A6A8AB"/>
		<stop  offset="0.1546" style="stop-color:#C0C1C3"/>
		<stop  offset="0.3638" style="stop-color:#DBDCDD"/>
		<stop  offset="0.5748" style="stop-color:#EFEFF0"/>
		<stop  offset="0.7864" style="stop-color:#FBFBFB"/>
		<stop  offset="1" style="stop-color:#FFFFFF"/>
	</radialGradient>
	<path fill="url(#SVGID_94_)" d="M239.761,477.884c-32.793-33.79-8.563-110.506,54.125-171.372
		c62.702-60.892,140.098-82.874,172.894-49.112c32.805,33.776,8.558,110.508-54.123,171.383
		C349.966,489.671,272.558,511.646,239.761,477.884z"/>
	
		<radialGradient id="SVGID_95_" cx="1050.4297" cy="1706.1875" r="280.5674" fx="828.1622" fy="1706.1902" gradientTransform="matrix(-0.4046 0.393 -0.2116 -0.2179 1049.8062 252.3041)" gradientUnits="userSpaceOnUse">
		<stop  offset="0" style="stop-color:#A6A8AB"/>
		<stop  offset="0.1546" style="stop-color:#C0C1C3"/>
		<stop  offset="0.3638" style="stop-color:#DBDCDD"/>
		<stop  offset="0.5748" style="stop-color:#EFEFF0"/>
		<stop  offset="0.7864" style="stop-color:#FBFBFB"/>
		<stop  offset="1" style="stop-color:#FFFFFF"/>
	</radialGradient>
	<path fill="url(#SVGID_95_)" d="M150.258,403.579c-32.788-33.771-8.563-110.504,54.127-171.368
		c62.707-60.9,140.101-82.872,172.896-49.109c32.8,33.774,8.555,110.503-54.129,171.383
		C260.469,415.354,183.053,437.327,150.258,403.579z"/>
	
		<radialGradient id="SVGID_96_" cx="1124.8916" cy="1499.4902" r="280.5659" fx="902.6253" fy="1499.4929" gradientTransform="matrix(-0.4046 0.393 -0.2116 -0.2179 1049.8062 252.3041)" gradientUnits="userSpaceOnUse">
		<stop  offset="0" style="stop-color:#A6A8AB"/>
		<stop  offset="0.1546" style="stop-color:#C0C1C3"/>
		<stop  offset="0.3638" style="stop-color:#DBDCDD"/>
		<stop  offset="0.5748" style="stop-color:#EFEFF0"/>
		<stop  offset="0.7864" style="stop-color:#FBFBFB"/>
		<stop  offset="1" style="stop-color:#FFFFFF"/>
	</radialGradient>
	<path fill="url(#SVGID_96_)" d="M163.871,477.884c-32.796-33.778-8.567-110.506,54.128-171.372
		c62.696-60.9,140.09-82.874,172.891-49.107c32.804,33.775,8.552,110.503-54.122,171.378
		C274.08,489.668,196.663,511.646,163.871,477.884z"/>
	
		<radialGradient id="SVGID_97_" cx="607.0029" cy="1530.1953" r="455.8374" fx="604.7394" fy="1509.3865" gradientTransform="matrix(-0.2167 0.2105 -0.2116 -0.2179 831.7271 464.006)" gradientUnits="userSpaceOnUse">
		<stop  offset="0" style="stop-color:#A6A8AB"/>
		<stop  offset="0.2643" style="stop-color:#C1C2C4"/>
		<stop  offset="0.7531" style="stop-color:#EEEEEF"/>
		<stop  offset="1" style="stop-color:#FFFFFF"/>
	</radialGradient>
	<path fill="url(#SVGID_97_)" d="M277.627,354.264c-53.288-54.881-52.271-142.301,2.285-195.253
		c54.555-52.991,141.956-51.45,195.251,3.415c53.3,54.88,52.257,142.296-2.28,195.271
		C418.346,410.668,330.914,409.127,277.627,354.264z"/>
	<linearGradient id="SVGID_98_" gradientUnits="userSpaceOnUse" x1="301.8809" y1="330.5684" x2="493.7061" y2="138.7431">
		<stop  offset="0" style="stop-color:#E6E7E8"/>
		<stop  offset="1" style="stop-color:#FFFFFF"/>
	</linearGradient>
	<path fill="url(#SVGID_98_)" d="M537.09,233.625c0,76.357-61.901,138.258-138.269,138.258
		c-76.354,0-138.262-61.901-138.262-138.258c0-76.359,61.908-138.263,138.262-138.263C475.188,95.362,537.09,157.265,537.09,233.625
		z"/>
	<path opacity="0.3" fill="#662D91" d="M273.886,106.066v0.004c0.026-0.028,0.057-0.056,0.089-0.085
		C273.947,106.013,273.912,106.041,273.886,106.066z"/>
	<g>
		<path fill="#666666" d="M444.008,222.87h-2.213v-36.478h-3.314v-2.211h5.527V222.87z"/>
		<path fill="#666666" d="M469.876,193.301c0,1.217-0.203,2.367-0.613,3.454c-0.403,1.086-0.957,2.127-1.654,3.123
			c-0.7,0.996-1.492,1.954-2.379,2.874c-0.881,0.921-1.823,1.823-2.816,2.709h0.054c-1.03,0.959-2.063,1.943-3.094,2.956
			c-1.036,1.014-1.989,2.13-2.875,3.344c-0.887,1.217-1.643,2.553-2.266,4.008c-0.627,1.455-1.049,3.085-1.274,4.892h16.86v2.21
			h-19.181c0.036-2.431,0.369-4.587,0.999-6.466c0.624-1.88,1.426-3.573,2.402-5.084c0.974-1.511,2.063-2.865,3.261-4.064
			c1.195-1.196,2.406-2.347,3.619-3.454c0.887-0.811,1.733-1.64,2.543-2.488c0.809-0.845,1.531-1.703,2.154-2.568
			c0.63-0.866,1.123-1.75,1.491-2.654c0.371-0.901,0.554-1.833,0.554-2.791c0-0.958-0.157-1.872-0.465-2.737
			c-0.315-0.863-0.797-1.631-1.441-2.294c-0.644-0.661-1.443-1.188-2.402-1.575c-0.957-0.387-2.063-0.58-3.319-0.58
			c-1.547,0-2.945,0.341-4.2,1.022c-1.251,0.682-2.304,1.592-3.149,2.735l-1.821-1.217c1.03-1.437,2.348-2.586,3.95-3.454
			c1.601-0.864,3.346-1.298,5.221-1.298c1.624,0,3.051,0.258,4.288,0.773c1.232,0.518,2.261,1.208,3.095,2.073
			c0.827,0.866,1.443,1.86,1.847,2.985C469.673,190.86,469.876,192.048,469.876,193.301z"/>
		<path fill="#666666" d="M474.296,189.707c0-0.81,0.146-1.566,0.44-2.265c0.294-0.7,0.711-1.31,1.244-1.825
			c0.535-0.515,1.151-0.93,1.854-1.244c0.699-0.313,1.457-0.47,2.266-0.47s1.565,0.157,2.266,0.47
			c0.697,0.313,1.307,0.729,1.823,1.244c0.517,0.515,0.931,1.125,1.246,1.825c0.311,0.699,0.468,1.455,0.468,2.265
			c0,0.811-0.157,1.567-0.468,2.266c-0.315,0.7-0.729,1.319-1.246,1.851c-0.517,0.536-1.126,0.949-1.823,1.243
			c-0.7,0.298-1.457,0.443-2.266,0.443s-1.566-0.146-2.266-0.443c-0.702-0.294-1.318-0.708-1.854-1.243
			c-0.533-0.532-0.95-1.151-1.244-1.851C474.442,191.274,474.296,190.518,474.296,189.707z M476.506,189.707
			c0,0.996,0.351,1.844,1.052,2.543c0.697,0.7,1.548,1.051,2.542,1.051c0.993,0,1.839-0.351,2.541-1.051
			c0.702-0.699,1.052-1.547,1.052-2.543c0-0.995-0.35-1.842-1.052-2.542c-0.702-0.7-1.548-1.05-2.541-1.05
			c-0.994,0-1.845,0.35-2.542,1.05C476.856,187.865,476.506,188.712,476.506,189.707z M479.935,222.87l9.283-38.688h2.266
			L482.2,222.87H479.935z M485.516,217.342c0-0.811,0.148-1.565,0.44-2.265c0.296-0.7,0.711-1.31,1.246-1.825
			s1.151-0.932,1.854-1.244c0.697-0.313,1.452-0.47,2.263-0.47c0.809,0,1.563,0.157,2.266,0.47c0.702,0.312,1.31,0.729,1.826,1.244
			c0.514,0.515,0.926,1.125,1.241,1.825c0.315,0.699,0.473,1.454,0.473,2.265c0,0.811-0.157,1.567-0.473,2.266
			c-0.315,0.7-0.728,1.319-1.241,1.851c-0.517,0.536-1.124,0.949-1.826,1.244s-1.457,0.443-2.266,0.443
			c-0.811,0-1.565-0.149-2.263-0.443c-0.702-0.294-1.318-0.708-1.854-1.244c-0.535-0.532-0.95-1.151-1.246-1.851
			C485.664,218.909,485.516,218.153,485.516,217.342z M487.728,217.342c0,0.996,0.348,1.844,1.048,2.543
			c0.704,0.7,1.547,1.05,2.543,1.05c0.999,0,1.842-0.35,2.546-1.05c0.697-0.699,1.048-1.547,1.048-2.543
			c0-0.995-0.351-1.842-1.048-2.542c-0.704-0.7-1.547-1.05-2.546-1.05c-0.996,0-1.839,0.35-2.543,1.05
			C488.075,215.5,487.728,216.348,487.728,217.342z"/>
	</g>
	<linearGradient id="SVGID_99_" gradientUnits="userSpaceOnUse" x1="398.8252" y1="340.2451" x2="398.8252" y2="132.6416">
		<stop  offset="0.1452" style="stop-color:#8CC63F"/>
		<stop  offset="1" style="stop-color:#A3E349"/>
	</linearGradient>
	<path fill="url(#SVGID_99_)" d="M428.424,236.445c-1.423,15.098-14.128,26.913-29.6,26.913c-16.422,0-29.736-13.313-29.736-29.735
		s13.314-29.735,29.736-29.735c5.967,0,11.519,1.764,16.175,4.789l35.84-62.078c-15.295-8.875-33.063-13.958-52.018-13.958
		c-57.32,0-103.797,46.476-103.797,103.8c0,57.333,46.477,103.804,103.797,103.804c57.33,0,103.805-46.471,103.805-103.8H428.424z"
		/>
</g>
<g>
	<g>
		<rect x="107.579" y="501.055" fill="#231F20" width="5.403" height="32.511"/>
	</g>
	<g>
		<rect x="114.208" y="489.117" fill="#231F20" width="5.403" height="44.448"/>
	</g>
	<g>
		<rect x="120.691" y="511.986" fill="#231F20" width="5.403" height="21.579"/>
	</g>
	<g>
		<rect x="127.175" y="482.991" fill="#231F20" width="5.403" height="50.574"/>
	</g>
	<g>
		<rect x="133.658" y="495.106" fill="#231F20" width="5.404" height="38.459"/>
	</g>
	<g>
		<rect x="140.143" y="463.797" fill="#231F20" width="5.403" height="69.769"/>
	</g>
</g>
<g>
	<g>
		<rect x="247.106" y="501.055" fill="#231F20" width="5.403" height="32.511"/>
	</g>
	<g>
		<rect x="253.734" y="505.873" fill="#231F20" width="5.403" height="27.692"/>
	</g>
	<g>
		<rect x="260.218" y="511.986" fill="#231F20" width="5.403" height="21.579"/>
	</g>
	<g>
		<rect x="266.702" y="498.682" fill="#231F20" width="5.403" height="34.884"/>
	</g>
	<g>
		<rect x="273.185" y="495.106" fill="#231F20" width="5.404" height="38.459"/>
	</g>
	<g>
		<rect x="279.669" y="514.909" fill="#231F20" width="5.403" height="18.656"/>
	</g>
</g>
<g>
	<g>
		<rect x="384.387" y="501.055" fill="#231F20" width="5.404" height="32.511"/>
	</g>
	<g>
		<rect x="391.016" y="489.117" fill="#231F20" width="5.402" height="44.448"/>
	</g>
	<g>
		<rect x="397.5" y="482.991" fill="#231F20" width="5.402" height="50.574"/>
	</g>
	<g>
		<rect x="403.982" y="479.823" fill="#231F20" width="5.404" height="53.742"/>
	</g>
	<g>
		<rect x="410.467" y="492.136" fill="#231F20" width="5.403" height="41.43"/>
	</g>
	<g>
		<rect x="416.951" y="463.797" fill="#231F20" width="5.402" height="69.769"/>
	</g>
</g>
<g>
	<g>
		<rect x="552.012" y="474.111" fill="#231F20" width="5.229" height="59.454"/>
	</g>
	<g>
		<rect x="545.599" y="489.117" fill="#231F20" width="5.228" height="44.448"/>
	</g>
	<g>
		<rect x="539.323" y="511.986" fill="#231F20" width="5.228" height="21.579"/>
	</g>
	<g>
		<rect x="533.048" y="508.059" fill="#231F20" width="5.23" height="25.507"/>
	</g>
	<g>
		<rect x="526.774" y="495.106" fill="#231F20" width="5.229" height="38.459"/>
	</g>
	<g>
		<rect x="520.5" y="463.797" fill="#231F20" width="5.228" height="69.769"/>
	</g>
</g>
</svg>
